<svg xmlns="http://www.w3.org/2000/svg" width="1920" height="229" viewBox="0 0 1920 229" fill="none">
  <path opacity="0.15" d="M1900.21 196.38V81.34L1879.8 60.09H1863.1V51.72H1857.33V95.5H1800L1785.36 80.26H1774.84V101.08H1755.87V88.64L1749.68 95.08V101.09C1749.68 101.09 1733.88 100.52 1732.45 100.99C1732.91 99.35 1732.36 79.2 1732.36 79.2H1699.37V14.81H1683.7V34.13H1671.33V14.81H1654.84V34.99H1622.67V101.95H1585.14V80.91L1579.57 86.7V115.89H1564.93V73.19L1541.22 48.51V86.93H1526.58V71.9H1481.22V89.07H1472.56V115.9H1463.9V41.42H1454.83V59.88H1396.27V72.33H1386.79V54.3H1374.83V102.81H1299.37V65.46H1292.77V83.06H1264.32V31.12L1234.43 0L1204.12 31.55V47H1174.02L1140.62 81.77H1090.21V35.84H1081.24V50.01L1074.44 42.93V23.83H1050.32V60.75H1005.37V110.54H996.71V83.92H987.23V115.9H981.46V92.5L975.07 85.85V40.14H970.33V86.07L963.94 92.72V134.14H960H956.08V92.72L949.69 86.07V40.14H944.95V85.86L938.56 92.51V115.9H932.79V83.92H923.31V110.53H914.65V60.74H869.7V23.82H845.58V42.92L838.78 50V35.84H829.81V81.77H779.4L745.98 47H715.88V31.55L685.57 0L655.67 31.12V83.06H627.22V65.46H620.62V102.81H545.16V54.3H533.2V72.33H523.72V59.88H465.16V41.42H456.09V115.9H447.43V89.07H438.77V71.9H393.4V86.92H378.76V48.51L355.05 73.19V115.9H340.41V86.71L334.84 80.92V101.95H297.31V34.98H265.15V14.81H248.66V34.13H236.29V14.81H220.62V79.2H187.63C187.63 79.2 187.08 99.35 187.54 100.99C186.11 100.53 170.31 101.09 170.31 101.09V95.08L164.12 88.64V101.09H145.15V80.27H134.63L120 95.51H62.68V51.73H56.91V60.1H40.21L19.79 81.34V196.38H0V228.12H960H1920V196.38H1900.21Z" fill="url(#paint0_linear_2661_73)"/>
  <defs>
    <linearGradient id="paint0_linear_2661_73" x1="960" y1="-0.682" x2="960" y2="240.418" gradientUnits="userSpaceOnUse">
      <stop stop-color="#066A8D"/>
      <stop offset="1" stop-color="white" stop-opacity="0"/>
    </linearGradient>
  </defs>
</svg>