<svg xmlns="http://www.w3.org/2000/svg" width="146" height="216" viewBox="0 0 146 216" fill="none">
  <path opacity="0.5" d="M25.2018 0C-7.99824 33.2 -7.99824 87.01 25.2018 120.21C58.4018 153.41 112.212 153.41 145.412 120.21L25.2018 0Z" fill="#E6F9FF"/>
  <path d="M50.192 126.1C50.192 125.3 49.542 124.65 48.742 124.65C47.942 124.65 47.292 125.3 47.292 126.1C47.292 126.9 47.942 127.55 48.742 127.55C49.542 127.55 50.192 126.9 50.192 126.1Z" fill="#ADDAE8"/>
  <path d="M74.0519 126.1C74.0519 125.3 73.4019 124.65 72.6019 124.65C71.8019 124.65 71.1519 125.3 71.1519 126.1C71.1519 126.9 71.8019 127.55 72.6019 127.55C73.4019 127.55 74.0519 126.9 74.0519 126.1Z" fill="#ADDAE8"/>
  <path d="M97.9122 126.1C97.9122 125.3 97.2622 124.65 96.4622 124.65C95.6622 124.65 95.0122 125.3 95.0122 126.1C95.0122 126.9 95.6622 127.55 96.4622 127.55C97.2622 127.55 97.9122 126.9 97.9122 126.1Z" fill="#ADDAE8"/>
  <path d="M121.762 126.1C121.762 125.3 121.112 124.65 120.312 124.65C119.512 124.65 118.862 125.3 118.862 126.1C118.862 126.9 119.512 127.55 120.312 127.55C121.112 127.55 121.762 126.9 121.762 126.1Z" fill="#ADDAE8"/>
  <path d="M145.622 126.1C145.622 125.3 144.972 124.65 144.172 124.65C143.372 124.65 142.722 125.3 142.722 126.1C142.722 126.9 143.372 127.55 144.172 127.55C144.972 127.55 145.622 126.9 145.622 126.1Z" fill="#ADDAE8"/>
  <path d="M50.192 148.11C50.192 147.31 49.542 146.66 48.742 146.66C47.942 146.66 47.292 147.31 47.292 148.11C47.292 148.91 47.942 149.56 48.742 149.56C49.542 149.56 50.192 148.91 50.192 148.11Z" fill="#ADDAE8"/>
  <path d="M74.0519 148.11C74.0519 147.31 73.4019 146.66 72.6019 146.66C71.8019 146.66 71.1519 147.31 71.1519 148.11C71.1519 148.91 71.8019 149.56 72.6019 149.56C73.4019 149.56 74.0519 148.91 74.0519 148.11Z" fill="#ADDAE8"/>
  <path d="M97.9122 148.11C97.9122 147.31 97.2622 146.66 96.4622 146.66C95.6622 146.66 95.0122 147.31 95.0122 148.11C95.0122 148.91 95.6622 149.56 96.4622 149.56C97.2622 149.56 97.9122 148.91 97.9122 148.11Z" fill="#ADDAE8"/>
  <path d="M121.762 148.11C121.762 147.31 121.112 146.66 120.312 146.66C119.512 146.66 118.862 147.31 118.862 148.11C118.862 148.91 119.512 149.56 120.312 149.56C121.112 149.56 121.762 148.91 121.762 148.11Z" fill="#ADDAE8"/>
  <path d="M145.622 148.11C145.622 147.31 144.972 146.66 144.172 146.66C143.372 146.66 142.722 147.31 142.722 148.11C142.722 148.91 143.372 149.56 144.172 149.56C144.972 149.56 145.622 148.91 145.622 148.11Z" fill="#ADDAE8"/>
  <path d="M50.192 170.12C50.192 169.32 49.542 168.67 48.742 168.67C47.942 168.67 47.292 169.32 47.292 170.12C47.292 170.92 47.942 171.57 48.742 171.57C49.542 171.57 50.192 170.92 50.192 170.12Z" fill="#ADDAE8"/>
  <path d="M74.0519 170.12C74.0519 169.32 73.4019 168.67 72.6019 168.67C71.8019 168.67 71.1519 169.32 71.1519 170.12C71.1519 170.92 71.8019 171.57 72.6019 171.57C73.4019 171.57 74.0519 170.92 74.0519 170.12Z" fill="#ADDAE8"/>
  <path d="M97.9122 170.12C97.9122 169.32 97.2622 168.67 96.4622 168.67C95.6622 168.67 95.0122 169.32 95.0122 170.12C95.0122 170.92 95.6622 171.57 96.4622 171.57C97.2622 171.57 97.9122 170.92 97.9122 170.12Z" fill="#ADDAE8"/>
  <path d="M121.762 170.12C121.762 169.32 121.112 168.67 120.312 168.67C119.512 168.67 118.862 169.32 118.862 170.12C118.862 170.92 119.512 171.57 120.312 171.57C121.112 171.57 121.762 170.92 121.762 170.12Z" fill="#ADDAE8"/>
  <path d="M145.622 170.12C145.622 169.32 144.972 168.67 144.172 168.67C143.372 168.67 142.722 169.32 142.722 170.12C142.722 170.92 143.372 171.57 144.172 171.57C144.972 171.57 145.622 170.92 145.622 170.12Z" fill="#ADDAE8"/>
  <path d="M50.192 192.12C50.192 191.32 49.542 190.67 48.742 190.67C47.942 190.67 47.292 191.32 47.292 192.12C47.292 192.92 47.942 193.57 48.742 193.57C49.542 193.57 50.192 192.92 50.192 192.12Z" fill="#ADDAE8"/>
  <path d="M74.0519 192.12C74.0519 191.32 73.4019 190.67 72.6019 190.67C71.8019 190.67 71.1519 191.32 71.1519 192.12C71.1519 192.92 71.8019 193.57 72.6019 193.57C73.4019 193.57 74.0519 192.92 74.0519 192.12Z" fill="#ADDAE8"/>
  <path d="M97.9122 192.12C97.9122 191.32 97.2622 190.67 96.4622 190.67C95.6622 190.67 95.0122 191.32 95.0122 192.12C95.0122 192.92 95.6622 193.57 96.4622 193.57C97.2622 193.57 97.9122 192.92 97.9122 192.12Z" fill="#ADDAE8"/>
  <path d="M121.762 192.12C121.762 191.32 121.112 190.67 120.312 190.67C119.512 190.67 118.862 191.32 118.862 192.12C118.862 192.92 119.512 193.57 120.312 193.57C121.112 193.57 121.762 192.92 121.762 192.12Z" fill="#ADDAE8"/>
  <path d="M145.622 192.12C145.622 191.32 144.972 190.67 144.172 190.67C143.372 190.67 142.722 191.32 142.722 192.12C142.722 192.92 143.372 193.57 144.172 193.57C144.972 193.57 145.622 192.92 145.622 192.12Z" fill="#ADDAE8"/>
  <path d="M50.192 214.13C50.192 213.33 49.542 212.68 48.742 212.68C47.942 212.68 47.292 213.33 47.292 214.13C47.292 214.93 47.942 215.58 48.742 215.58C49.542 215.58 50.192 214.93 50.192 214.13Z" fill="#ADDAE8"/>
  <path d="M74.0519 214.13C74.0519 213.33 73.4019 212.68 72.6019 212.68C71.8019 212.68 71.1519 213.33 71.1519 214.13C71.1519 214.93 71.8019 215.58 72.6019 215.58C73.4019 215.58 74.0519 214.93 74.0519 214.13Z" fill="#ADDAE8"/>
  <path d="M97.9122 214.13C97.9122 213.33 97.2622 212.68 96.4622 212.68C95.6622 212.68 95.0122 213.33 95.0122 214.13C95.0122 214.93 95.6622 215.58 96.4622 215.58C97.2622 215.58 97.9122 214.93 97.9122 214.13Z" fill="#ADDAE8"/>
  <path d="M121.762 214.13C121.762 213.33 121.112 212.68 120.312 212.68C119.512 212.68 118.862 213.33 118.862 214.13C118.862 214.93 119.512 215.58 120.312 215.58C121.112 215.58 121.762 214.93 121.762 214.13Z" fill="#ADDAE8"/>
  <path d="M145.622 214.13C145.622 213.33 144.972 212.68 144.172 212.68C143.372 212.68 142.722 213.33 142.722 214.13C142.722 214.93 143.372 215.58 144.172 215.58C144.972 215.58 145.622 214.93 145.622 214.13Z" fill="#ADDAE8"/>
</svg>