<svg xmlns="http://www.w3.org/2000/svg" width="149" height="161" viewBox="0 0 149 161" fill="none">
  <g opacity="0.1">
    <path d="M108.133 120.133C130.249 98.0174 130.249 62.1603 108.133 40.0444C86.0174 17.9285 50.1604 17.9285 28.0445 40.0444C5.92851 62.1604 5.92851 98.0174 28.0444 120.133C50.1604 142.249 86.0174 142.249 108.133 120.133Z" stroke="url(#paint0_linear_65_3994)" stroke-width="20" stroke-miterlimit="10"/>
    <path d="M55.7689 47.7625C60.4393 47.7625 60.4393 53.7392 65.1096 53.7392C69.7799 53.7392 69.7799 47.7625 74.4503 47.7625C79.1206 47.7625 79.1206 53.7392 83.791 53.7392C88.4613 53.7392 88.4613 47.7625 93.1316 47.7625C97.802 47.7625 97.802 53.7392 102.472 53.7392C107.143 53.7392 107.143 47.7625 111.813 47.7625C116.483 47.7625 116.483 53.7392 121.162 53.7392C125.832 53.7392 125.832 47.7625 130.511 47.7625" stroke="#B9E0ED" stroke-miterlimit="10"/>
  </g>
  <defs>
    <linearGradient id="paint0_linear_65_3994" x1="117.414" y1="46.5377" x2="56.5854" y2="109.816" gradientUnits="userSpaceOnUse">
      <stop stop-color="#DAF1F9"/>
      <stop offset="1" stop-color="#F6FCFE"/>
    </linearGradient>
  </defs>
</svg>