<svg xmlns="http://www.w3.org/2000/svg" width="284" height="421" viewBox="0 0 284 421" fill="none">
  <path d="M138.906 176.383L-92.0641 6.45376L-91.7121 5.97532L139.452 176.047L142.44 195.671L166.145 213.112C166.559 212.776 167.15 212.736 167.594 213.063C168.129 213.457 168.244 214.208 167.85 214.744C167.456 215.279 166.705 215.393 166.169 215C165.725 214.673 165.587 214.097 165.784 213.602L141.874 196.01L138.886 176.386L138.906 176.383ZM125.407 224.382L175.21 261.023L184.691 259.58L192.243 265.136C192.045 265.631 192.184 266.207 192.628 266.534C193.163 266.928 193.915 266.814 194.309 266.278C194.702 265.743 194.588 264.991 194.053 264.597C193.608 264.271 193.018 264.31 192.603 264.646L184.846 258.939L175.365 260.382L125.562 223.741L105.939 226.729L-127.673 54.8653L-128.025 55.3437L105.783 227.37L125.407 224.382ZM2.06232 167.318L103.274 241.782L122.898 238.794L140.372 251.65C140.324 252.062 140.479 252.484 140.832 252.743C141.367 253.137 142.119 253.023 142.513 252.488C142.906 251.952 142.792 251.201 142.257 250.807C141.721 250.413 140.98 250.526 140.586 251.061L123.055 238.163L103.431 241.151L2.21916 166.687L-27.706 171.244L-148.122 82.6601L-148.474 83.1385L-27.8628 171.875L2.06232 167.318ZM170.959 178.493L168.979 165.492L259.631 232.187L259.983 231.709L94.6157 110.044L83.0166 125.81L-87.5552 0.325236L-87.9072 0.80367L82.894 126.466L83.1332 126.642L145.353 172.418L148.34 192.042L189.987 222.682C189.789 223.177 189.928 223.753 190.372 224.08C190.907 224.474 191.659 224.359 192.052 223.824C192.446 223.289 192.332 222.537 191.797 222.143C191.352 221.817 190.761 221.856 190.347 222.192L148.907 191.713L145.939 172.217L145.642 172.262L145.818 172.023L83.4966 126.172L94.7437 110.885L156.963 156.661L161.131 184.035L206.662 217.533C206.464 218.029 206.603 218.604 207.047 218.931C207.582 219.325 208.334 219.211 208.727 218.675C209.121 218.14 209.007 217.389 208.472 216.995C208.027 216.668 207.436 216.707 207.022 217.043L161.696 183.696L157.656 157.162L168.307 164.998L170.413 178.829L283.312 261.891L283.664 261.413L170.959 178.493ZM65.7932 188.476L102.815 215.714C102.617 216.209 102.756 216.785 103.2 217.112C103.735 217.506 104.487 217.392 104.88 216.856C105.274 216.321 105.16 215.569 104.625 215.175C104.18 214.849 103.589 214.888 103.175 215.224L66.3587 188.137L59.6709 144.214L90.211 166.683C90.0133 167.178 90.1515 167.754 90.5958 168.081C91.1312 168.474 91.8825 168.36 92.2764 167.825C92.6703 167.289 92.5559 166.538 92.0205 166.144C91.5762 165.817 90.9854 165.857 90.5713 166.193L-104.181 22.9355L-104.533 23.4139L58.9889 143.721L65.7932 188.476ZM40.5468 169.086C40.3491 169.581 40.4874 170.157 40.9316 170.484C41.467 170.877 42.2184 170.763 42.6123 170.228C43.0062 169.692 42.8918 168.941 42.3564 168.547C41.9121 168.22 41.3213 168.26 40.9072 168.596L29.2311 160.005L46.1363 157.431L52.4926 162.108L55.0019 178.588C54.8117 178.668 54.6275 178.787 54.5018 178.958C54.1079 179.493 54.2223 180.244 54.7577 180.638C55.2931 181.032 56.0444 180.918 56.4383 180.382C56.8322 179.847 56.7178 179.096 56.1824 178.702C56.0115 178.576 55.8003 178.517 55.6049 178.496L53.058 161.769L46.303 156.799L28.5575 159.501L-122.771 48.1915L-123.123 48.6699L40.5468 169.086ZM50.0797 148.719C50.1592 148.909 50.2768 149.083 50.4492 149.219C50.9846 149.613 51.7359 149.498 52.1298 148.963C52.5237 148.427 52.4093 147.676 51.8739 147.282C51.3385 146.888 50.5872 147.003 50.1933 147.538C50.0592 147.72 50.0087 147.92 49.9894 148.125L31.0477 151.009L-117.825 41.4805L-118.177 41.9589L30.9008 151.639L50.0797 148.719ZM-23.9719 304.389L-0.26659 321.829C-0.464278 322.325 -0.326036 322.9 0.118226 323.227C0.653619 323.621 1.40495 323.507 1.79885 322.971C2.19275 322.436 2.07835 321.685 1.54296 321.291C1.0987 320.964 0.5079 321.003 0.0937745 321.339L-23.8166 303.748L-43.4404 306.736L-218.33 178.075L-218.682 178.554L-43.5859 307.375L-23.9719 304.389ZM-22.1176 297.036L60.5833 357.881C60.3856 358.376 60.5239 358.952 60.9681 359.279C61.5035 359.673 62.2548 359.558 62.6487 359.023C63.0426 358.487 62.9282 357.736 62.3929 357.342C61.9486 357.015 61.3578 357.055 60.9437 357.391L-21.9508 296.404L-41.5747 299.391L-214.163 172.424L-214.515 172.902L-41.7315 300.022L-22.1176 297.036ZM-39.8855 292.681L-20.2617 289.693L52.5287 343.246C52.331 343.742 52.4693 344.317 52.9135 344.644C53.4489 345.038 54.2003 344.924 54.5942 344.388C54.9881 343.853 54.8737 343.102 54.3383 342.708C53.894 342.381 53.3032 342.42 52.8891 342.757L-20.095 289.061L-39.7188 292.049L-210.006 166.773L-210.358 167.252L-39.8855 292.681ZM-2.17832 279.909L47.6245 316.55L49.068 326.031L56.8255 331.738C56.6278 332.234 56.766 332.81 57.2103 333.136C57.7457 333.53 58.497 333.416 58.8909 332.881C59.2848 332.345 59.1704 331.594 58.635 331.2C58.1907 330.873 57.5999 330.912 57.1858 331.249L49.6334 325.692L48.1899 316.211L-1.63268 279.573L-4.62058 259.95L-182.359 129.184L-182.711 129.662L-5.16622 260.286L-2.17832 279.909ZM10.8969 273.64L27.8472 286.111C27.6495 286.606 27.7877 287.182 28.232 287.509C28.7674 287.902 29.5187 287.788 29.9126 287.253C30.3065 286.717 30.1921 285.966 29.6567 285.572C29.2125 285.245 28.6217 285.285 28.2076 285.621L11.4623 273.301L8.47445 253.677L-174.765 118.873L-175.117 119.351L7.91891 254.015L10.9068 273.638L10.8969 273.64ZM-45.3667 314.413L-45.3216 314.71L-25.8262 311.742L15.6267 342.24C15.429 342.735 15.5673 343.311 16.0115 343.638C16.5469 344.031 17.2983 343.917 17.6922 343.382C18.0861 342.846 17.9717 342.095 17.4363 341.701C16.992 341.374 16.4012 341.414 15.9871 341.75L-25.6595 311.109L-45.2834 314.097L-222.486 183.725L-222.838 184.204L-45.5442 314.643L-45.3667 314.413ZM-89.6776 224.155L-82.9226 229.125L-66.1361 226.569C-66.0634 226.78 -65.9413 226.984 -65.7363 227.135C-65.2009 227.529 -64.4495 227.415 -64.0556 226.879C-63.6617 226.344 -63.7761 225.593 -64.3115 225.199C-64.8469 224.805 -65.5983 224.919 -65.9922 225.455C-66.1095 225.614 -66.163 225.794 -66.1967 225.971L-82.7658 228.494L-89.1221 223.817L-91.6961 206.912L-80.0769 215.461C-80.2746 215.956 -80.1364 216.532 -79.6921 216.859C-79.1567 217.253 -78.4054 217.138 -78.0115 216.603C-77.6176 216.067 -77.732 215.316 -78.2674 214.922C-78.7117 214.595 -79.3025 214.635 -79.7166 214.971L-91.8255 206.062L-187.262 135.848L-187.614 136.326L-92.3712 206.398L-89.6678 224.153L-89.6776 224.155ZM-96.8794 230.269C-97.0696 230.348 -97.2439 230.466 -97.3795 230.638C-97.7734 231.174 -97.659 231.925 -97.1236 232.319C-96.5882 232.713 -95.8369 232.598 -95.443 232.063C-95.0491 231.527 -95.1635 230.776 -95.6989 230.382C-95.8812 230.248 -96.081 230.198 -96.2863 230.178L-99.208 210.989L-192.207 142.568L-192.559 143.047L-99.7536 211.325L-96.8794 230.269ZM-67.1598 265.021C-66.6244 265.415 -65.873 265.301 -65.4791 264.765C-65.0852 264.23 -65.1996 263.478 -65.735 263.085C-66.1793 262.758 -66.7701 262.797 -67.1842 263.133L-97.7243 240.664L-53.8005 233.976L-16.9838 261.063C-17.1815 261.559 -17.0433 262.134 -16.599 262.461C-16.0636 262.855 -15.3123 262.741 -14.9184 262.205C-14.5245 261.67 -14.6389 260.919 -15.1743 260.525C-15.6185 260.198 -16.2093 260.237 -16.6234 260.573L-53.6452 233.336L-98.3994 240.15L-205.842 161.102L-206.194 161.581L-67.5347 263.622C-67.7324 264.117 -67.604 264.694 -67.1598 265.021ZM80.2719 418.498L-31.7273 336.097L-45.5579 338.203L-56.2088 330.367L-29.6746 326.327L15.6514 359.674C15.4537 360.17 15.5919 360.746 16.0362 361.072C16.5716 361.466 17.3229 361.352 17.7168 360.817C18.1107 360.281 17.9963 359.53 17.4609 359.136C17.0167 358.809 16.4259 358.848 16.0118 359.185L-29.5193 325.686L-56.8938 329.855L-97.9595 299.642L-85.8095 297.792C-85.7299 297.982 -85.6124 298.156 -85.44 298.292C-84.9046 298.686 -84.1533 298.571 -83.7594 298.036C-83.3655 297.5 -83.4799 296.749 -84.0153 296.355C-84.5507 295.961 -85.302 296.076 -85.6959 296.611C-85.83 296.793 -85.8805 296.993 -85.8998 297.199L-98.633 299.137L-119.26 283.979L-121.947 266.333L-226.61 189.33L-226.962 189.808L-122.492 266.669L-119.805 284.315L44.3434 405.083C44.1556 405.577 44.2923 406.143 44.7366 406.47C45.2719 406.863 46.0233 406.749 46.4172 406.214C46.8111 405.678 46.6967 404.927 46.1613 404.533C45.7057 404.198 45.1164 404.247 44.7037 404.593L-44.8661 338.695L-31.8659 336.715L79.9056 418.948C79.6501 419.462 79.7661 420.092 80.2446 420.444C80.78 420.838 81.5313 420.724 81.9252 420.188C82.3191 419.653 82.2047 418.901 81.6693 418.508C81.2296 418.21 80.6852 418.222 80.2719 418.498ZM77.7011 329.996L4.91065 276.443L1.92275 256.819L-178.561 124.033L-178.913 124.512L1.3771 257.155L4.36501 276.779L77.3491 330.475C77.1514 330.97 77.2896 331.546 77.7339 331.873C78.2693 332.267 79.0206 332.152 79.4145 331.617C79.8084 331.081 79.694 330.33 79.1586 329.936C78.7045 329.611 78.1152 329.66 77.7011 329.996ZM-46.1763 198.151C-45.6409 198.545 -44.8896 198.43 -44.4957 197.895C-44.1018 197.359 -44.2162 196.608 -44.7515 196.214C-45.1958 195.887 -45.7866 195.927 -46.2007 196.263L-166.57 107.722L-166.922 108.201L-46.5611 196.753C-46.7588 197.248 -46.6304 197.825 -46.1763 198.151ZM164.276 311.453L119.52 278.525L116.532 258.901L75.1588 228.462L55.5349 231.45L9.76468 197.776L-14.6539 201.494L-42.2664 181.179L-44.2639 168.06L-25.8669 181.595L-5.74857 178.4L33.5059 207.281L33.8578 206.802L-5.60163 177.771L-25.72 180.966L-30.8461 177.194L-1.60307 172.742L55.9686 215.098L56.3206 214.62L-1.44473 172.121L-31.528 176.701L-64.6312 152.347L-152.062 88.0041L-152.414 88.4825L-65.157 152.68L-61.4391 177.098L-15.6688 210.772L-12.6809 230.396L28.6923 260.835L48.3161 257.847L93.0726 290.776C92.903 291.257 93.0383 291.813 93.4726 292.141C94.008 292.535 94.7594 292.421 95.1533 291.885C95.5472 291.35 95.4328 290.598 94.8974 290.205C94.4417 289.869 93.8327 289.922 93.4117 290.279L48.4616 257.208L28.8476 260.195L-12.1269 230.049L-15.1148 210.425L-60.8851 176.751L-64.4751 153.173L-44.9276 167.554L-42.8022 181.513L-14.8024 202.113L9.61622 198.395L55.3865 232.069L75.0103 229.082L115.985 259.227L118.973 278.851L163.923 311.922C163.725 312.417 163.863 312.993 164.308 313.32C164.843 313.714 165.594 313.599 165.988 313.064C166.382 312.529 166.268 311.777 165.732 311.383C165.281 311.078 164.69 311.117 164.276 311.453ZM197.497 284.627L124.513 230.931L104.889 233.919L6.42251 161.475L-23.6212 166.05L-144.2 77.3289L-144.552 77.8074L-23.7697 166.669L6.26416 162.096L104.731 234.54L124.354 231.552L197.145 285.106C196.947 285.601 197.085 286.177 197.53 286.504C198.065 286.898 198.816 286.783 199.21 286.248C199.604 285.712 199.49 284.961 198.954 284.567C198.502 284.252 197.912 284.301 197.497 284.627ZM202.304 257.14L129.514 203.587L126.526 183.963L-100.024 17.2854L-100.376 17.7638L125.98 184.299L128.968 203.923L201.952 257.619C201.755 258.114 201.893 258.69 202.337 259.017C202.872 259.411 203.624 259.296 204.018 258.761C204.412 258.226 204.297 257.474 203.762 257.08C203.308 256.755 202.718 256.804 202.304 257.14ZM218.682 260.473L135.982 199.628L132.994 180.005L-95.869 11.6254L-96.2195 12.1137L132.438 180.342L135.426 199.966L218.321 260.953C218.123 261.448 218.261 262.024 218.705 262.351C219.241 262.745 219.992 262.631 220.386 262.095C220.78 261.56 220.666 260.808 220.13 260.415C219.676 260.089 219.097 260.137 218.682 260.473ZM41.0362 140.344C41.5716 140.738 42.3229 140.624 42.7168 140.089C43.1107 139.553 42.9963 138.802 42.4609 138.408C42.0166 138.081 41.4258 138.12 41.0117 138.457L-108.338 28.5856L-108.69 29.064L40.6612 138.945C40.4537 139.442 40.582 140.019 41.0362 140.344ZM-32.0258 217.279C-31.4904 217.673 -30.7391 217.558 -30.3452 217.023C-29.9513 216.487 -30.0657 215.736 -30.6011 215.342C-31.0454 215.015 -31.6362 215.055 -32.0503 215.391L-170.727 113.373L-171.079 113.851L-32.4107 215.881C-32.6098 216.366 -32.4815 216.943 -32.0258 217.279ZM-108.433 225.938C-107.898 226.332 -107.146 226.218 -106.752 225.682C-106.358 225.147 -106.473 224.396 -107.008 224.002C-107.452 223.675 -108.043 223.714 -108.457 224.051L-201.695 155.454L-202.047 155.932L-108.809 224.529C-109.006 225.034 -108.877 225.612 -108.433 225.938Z" fill="#09B8FB"/>
</svg>