<svg xmlns="http://www.w3.org/2000/svg" width="77" height="60" viewBox="0 0 77 60" fill="none">
  <path d="M16.3432 48.9098C15.6606 49.5156 14.025 50.4726 13.1235 50.7391C10.2515 51.6235 7.19924 50.4484 5.525 48.0982L12.3379 46.0024L12.1189 45.3603L5.15152 47.5046C4.95833 47.1654 4.79091 46.8262 4.66212 46.4506C4.64924 46.4143 4.64924 46.3901 4.63636 46.3537L11.7197 44.1731L11.2689 42.8769L4.34015 45.009C4.01818 42.041 5.80833 39.1941 8.79621 38.2735C9.62045 38.0191 11.2947 37.6799 12.1705 37.7525L11.6038 36.0323C10.4318 35.9354 9.27273 36.0565 8.15227 36.3957C4.03106 37.6556 1.62273 41.6291 2.25379 45.6511L0 46.3416L0.450758 47.6378L2.57576 46.9837C2.58864 47.02 2.58864 47.0442 2.60152 47.0806C2.7303 47.4561 2.92348 47.7953 3.09091 48.1345L0.862879 48.8129L1.08182 49.455L3.4 48.7402C5.48636 52.1201 9.78788 53.8283 13.7803 52.6047C14.9909 52.2292 16.0727 51.6235 17 50.7997L16.3432 48.9098Z" fill="#68D6F8"/>
  <path d="M35 0L31.515 0.615199L29.2117 6.56815L24.5651 1.8275L21 2.4608L28.03 9.1918L25.6266 9.60796L25.7468 10.1508L28.2504 9.69843L28.4907 10.8565L25.9871 11.2907L26.2074 12.3764L28.731 11.924L29.392 15L32.3963 14.4753L31.7353 11.3993L34.259 10.965L34.0386 9.87937L31.495 10.3317L31.2547 9.1737L33.7783 8.73944L33.6781 8.19662L31.2547 8.63088L35 0Z" fill="#68D6F8"/>
  <path d="M76.8837 26.3939C76.3473 23.7238 74.539 22.22 70.8457 21.7136C68.455 21.376 67.6428 21.0537 67.4589 20.179C67.275 19.2583 67.9646 18.5524 69.3592 18.2762C70.907 17.9693 72.6234 18.2609 73.5275 18.5371L73.7574 14.4246C72.7613 14.1483 71.2288 14.0102 69.5431 14.1944L69.114 12L66.003 12.5985L66.4475 14.9309C63.1833 16.2353 61.5435 18.9054 62.1105 21.821C62.509 23.9693 64.3326 25.7647 68.3937 26.2864C70.6311 26.5934 71.3054 26.9309 71.4893 27.8824C71.6732 28.8184 71.0449 29.5396 69.3285 29.8772C67.6734 30.1995 65.3441 29.8926 64.1794 29.4629L63.9342 33.7289C65.4667 34.2046 67.7194 34.3274 70.1101 33.867L70.5239 36L73.6348 35.4015L73.1444 32.8849C76.1787 31.4578 77.4047 29.0486 76.8837 26.3939Z" fill="#68D6F8"/>
  <path d="M50.3637 47.0862C51.4922 45.8999 51.7555 44.3835 51.1411 42.537C50.7273 41.2896 50.0001 40.3357 48.9718 39.6876C48.069 39.1128 46.6019 39.1128 44.6333 39.6509L44.0815 38L41.6113 38.7827L42.1505 40.3969L38 41.7176L44.0188 59.7065L48.1693 58.3858L48.7085 60L51.1787 59.2173L50.627 57.5787C51.9687 57.1017 52.8966 56.6982 53.3856 56.3557C54.0502 55.891 54.5393 55.1329 54.8277 54.0934C55.1161 53.0417 55.0408 51.8677 54.6145 50.5837C53.8621 48.3091 52.4452 47.1473 50.3637 47.0862ZM41.9749 43.7476L43.6803 43.1973C45.4985 42.6226 46.6646 42.3902 47.1913 42.5125C47.7179 42.6348 48.1192 43.1117 48.4076 43.9555C48.7085 44.8605 48.6584 45.5208 48.2446 45.9366C47.8308 46.3524 46.8527 46.8049 45.3229 47.294L43.3668 47.9177L41.9749 43.7476ZM51.3794 53.5064C50.9907 53.9589 50.1004 54.4113 48.7336 54.8516L45.975 55.7321L44.3699 50.9138L46.7649 50.1556C48.3073 49.6665 49.3982 49.5075 50.0377 49.6909C50.6772 49.8621 51.1662 50.4247 51.4797 51.3663C51.8057 52.3324 51.7806 53.0417 51.3794 53.5064Z" fill="#68D6F8"/>
</svg>