<svg xmlns="http://www.w3.org/2000/svg" width="1920" height="190" viewBox="0 0 1920 190" fill="none">
  <path opacity="0.35" d="M1910.72 113.38V139.14H1905.15V107.27H1894.33L1884.74 97.2898H1874.84V126.26H1867.42V108.88H1856.9V128.2H1848.86V29.6698H1840.51V11.3198L1822.26 30.3098H1811.13V121.1H1801.85V93.4098H1769.68V82.4598H1762.26V92.7598H1754.22V103.38H1749.58L1739.99 93.3998H1722.05L1712.15 83.0998H1694.52V103.38L1686.79 111.43V93.3998H1681.22V50.8998L1673.8 43.1698H1660.19L1652.77 50.8998V121.73H1644.11V79.2298H1638.54V74.7198H1633.59V77.9398H1608.23V132.03L1582.25 104.99V90.8198H1569.88V80.5198H1555.03V74.0798H1526.58V93.3998H1521.01V128.81H1511.73V21.2998H1497.5V35.4698H1492.24V82.1498L1483.27 91.4898V105.01H1461V120.46H1452.65V56.3898L1448.63 52.1998V63.1498H1409.04C1409.04 63.1498 1410.9 101.78 1409.04 101.78C1407.18 101.78 1392.96 101.78 1392.96 101.78V87.6098L1383.68 77.9498V52.8498H1378.73V78.6098L1371.31 86.3398V101.79H1365.74V85.6898H1360.17V101.79H1340.99V58.6498H1327.38V70.2398L1321.81 76.0298V144.28H1309.44V81.8198H1262.43V101.78H1255.01V71.5198H1246.35V65.7298H1237.07V52.2098H1229.03V46.4198H1219.13V53.4998H1211.71V37.3998H1166.56V80.5398H1136.25V71.5298H1126.35V132.7H1110.27V76.6798H1101.61V131.41H1090.17V38.3598L1075.02 22.5798V14.8498H1064.5V0.0498047H1034.19V11.6398H1027.39V75.3798H1019.35V83.7498H1006.98L1003.27 87.6098V103.71H997.7V87.6098H982.85V148.13H971.1V124.95H960H948.87V148.13H937.12V87.6098H922.27V103.71H916.7V87.6098L912.99 83.7498H900.62V75.3798H892.58V11.6398H885.78V0.0498047H855.47V14.8598H844.95V22.5898L829.8 38.3698V131.41H818.36V76.6798H809.7V132.7H793.62V71.5298H783.72V80.5398H753.4V37.3998H708.25V53.4998H700.83V46.4198H690.93V52.2098H682.89V65.7298H673.61V71.5198H664.95V101.78H657.53V81.8198H610.52V144.28H598.15V76.0298L592.58 70.2398V58.6498H578.97V101.79H559.79V85.6898H554.22V101.79H548.65V86.3398L541.23 78.6098V52.8498H536.28V77.9598L527 87.6198V101.79C527 101.79 512.77 101.79 510.92 101.79C509.06 101.79 510.92 63.1598 510.92 63.1598H471.33V52.2098L467.31 56.3998V120.47H458.96V105.02H436.7V91.4998L427.73 82.1598V35.4698H422.47V21.2998H408.24V128.83H398.96V93.4198H393.39V74.0998H364.94V80.5398H350.1V90.8398H337.73V105.01L311.75 132.05V77.9598H286.39V74.7398H281.44V79.2498H275.87V121.75H267.21V50.9198L259.79 43.1898H246.18L238.76 50.9198V93.4198H233.19V111.45L225.46 103.4V83.1198H207.83L197.93 93.4198H180L170.41 103.4H165.77V92.7798H157.73V82.4798H150.31V93.4298H118.15V121.12H108.87V30.3198H97.73L79.48 11.3198V29.6698H71.13V128.18H63.09V108.86H52.58V126.24H45.16V97.2698H35.26L25.67 107.25H14.85V139.12H9.28V113.36H0V190.17H960H1920V113.36H1910.72V113.38ZM94.36 92.8698H84.15V74.4898H94.36V92.8698ZM94.36 63.2498H84.15V44.8698H94.36V63.2498ZM256.62 77.8998H248.77V60.2498H256.62V77.8998ZM419.86 77.7998H413.35V63.1598H419.86V77.7998ZM419.86 55.8398H413.35V41.2098H419.86V55.8398ZM476.64 82.1098H471.47V70.4898H476.64V82.1098ZM489.85 82.1098H484.68V70.4898H489.85V82.1098ZM502.01 82.1098H496.84V70.4898H502.01V82.1098ZM590.38 90.8198H585.21V79.1998H590.38V90.8198ZM720.54 59.1098H715.37V47.4798H720.54V59.1098ZM733.37 59.1098H728.2V47.4798H733.37V59.1098ZM746.2 59.1098H741.03V47.4798H746.2V59.1098ZM846.58 56.2898H838.74V38.6798H846.58V56.2898ZM866.02 56.2898H858.18V38.6798H866.02V56.2898ZM885.47 56.2898H877.63V38.6798H885.47V56.2898ZM1041.99 53.2998H1034.15V35.6798H1041.99V53.2998ZM1061.43 53.2998H1053.59V35.6798H1061.43V53.2998ZM1080.88 53.2998H1073.04V35.6798H1080.88V53.2998ZM1183.43 65.9398H1175.59V51.7698H1183.43V65.9398ZM1202.88 65.9398H1195.04V51.7698H1202.88V65.9398ZM1426.75 88.6598H1418.91V74.4898H1426.75V88.6598ZM1446.2 88.6598H1438.36V74.4898H1446.2V88.6598ZM1671.64 70.7898H1663.8V56.6198H1671.64V70.7898ZM1833.77 56.6198H1825.93V42.4498H1833.77V56.6198Z" fill="url(#paint0_linear_2661_74)"/>
  <defs>
    <linearGradient id="paint0_linear_2661_74" x1="960" y1="1.2114" x2="960" y2="188.111" gradientUnits="userSpaceOnUse">
      <stop stop-color="#066A8D"/>
      <stop offset="1" stop-color="white" stop-opacity="0"/>
    </linearGradient>
  </defs>
</svg>