<svg xmlns="http://www.w3.org/2000/svg" width="231" height="259" viewBox="0 0 231 259" fill="none">
  <path d="M33.4361 247.66C-2.01128 215.285 -4.03474 163.962 3.67282 119.133C4.96048 111.646 5.21801 103.608 9.72482 97.5189C14.25 91.4117 23.3188 88.0822 29.7019 92.1843C34.9997 95.5874 36.5817 102.43 39.0099 108.225C42.2474 115.951 47.7108 122.72 54.5722 127.521C59.079 130.667 64.8734 133.022 70.0241 131.072C77.0878 128.404 79.0929 119.538 80.0678 112.051C81.8889 98.1076 83.71 84.1641 85.5127 70.2022C86.4877 62.7154 87.4994 55.0814 90.8289 48.312C94.1585 41.5426 100.266 35.6561 107.734 34.6628C115.221 33.6694 123.572 38.9856 124.087 46.5092C124.308 49.6364 123.241 52.7268 123.02 55.854C122.8 58.9811 123.811 62.6234 126.663 63.8926C129.569 65.1803 132.88 63.4695 135.456 61.6116C144.304 55.1366 150.944 46.1413 157.217 37.1461C163.508 28.1509 169.67 18.9165 177.893 11.6505C186.116 4.3844 196.822 -0.784635 207.748 0.0983313C218.675 0.981297 229.344 9.18553 230.632 20.0754C231.938 31.0022 224.249 40.8251 216.302 48.4407C204.511 59.7169 191.082 69.2824 176.569 76.7324C173.957 78.0753 171.124 79.5285 169.818 82.1774C167.5 86.9417 171.602 92.5523 176.366 94.87C181.756 97.5005 187.974 97.7581 193.786 99.2665C199.599 100.756 205.651 104.215 207.123 110.028C209.183 118.103 201.604 125.222 194.522 129.582C180.321 138.338 164.612 144.629 148.314 148.124C142.464 149.375 136.357 150.331 131.335 153.587C126.313 156.843 122.689 163.19 124.676 168.818C126.663 174.466 133.414 177.115 139.392 176.839C145.371 176.581 151.036 174.171 156.867 172.847C167.813 170.4 181.149 172.957 186.612 182.744C190.199 189.182 189.464 197.368 186.3 204.027C183.136 210.686 177.82 216.057 172.283 220.932C152.949 237.966 129.459 250.585 104.184 255.533C78.9273 260.463 56.2461 259.617 33.4361 247.66Z" fill="url(#paint0_linear_108_210)"/>
  <defs>
    <linearGradient id="paint0_linear_108_210" x1="115.389" y1="0.00012207" x2="115.389" y2="258.363" gradientUnits="userSpaceOnUse">
      <stop stop-color="#D9EBF2"/>
      <stop offset="1" stop-color="#F1F9FC"/>
    </linearGradient>
  </defs>
</svg>