<svg xmlns="http://www.w3.org/2000/svg" width="113" height="163" viewBox="0 0 113 163" fill="none">
  <path opacity="0.8" d="M106.712 1.31006V103.13L23.6416 52.22L106.712 1.31006Z" fill="#DAF3FD"/>
  <path opacity="0.8" d="M84.2113 1.31006V103.13L1.15137 52.22L84.2113 1.31006Z" stroke="#C2E8F4" stroke-miterlimit="10"/>
  <g opacity="0.8">
    <path d="M31.9015 86.8301C31.9015 86.1501 31.3514 85.6001 30.6714 85.6001C29.9914 85.6001 29.4414 86.1501 29.4414 86.8301C29.4414 87.5101 29.9914 88.0601 30.6714 88.0601C31.3514 88.0601 31.9015 87.5101 31.9015 86.8301Z" fill="#AAD7E6"/>
    <path d="M52.1417 86.8301C52.1417 86.1501 51.5917 85.6001 50.9117 85.6001C50.2317 85.6001 49.6816 86.1501 49.6816 86.8301C49.6816 87.5101 50.2317 88.0601 50.9117 88.0601C51.5917 88.0701 52.1417 87.5101 52.1417 86.8301Z" fill="#AAD7E6"/>
    <path d="M72.3917 86.8301C72.3917 86.1501 71.8417 85.6001 71.1617 85.6001C70.4817 85.6001 69.9316 86.1501 69.9316 86.8301C69.9316 87.5101 70.4817 88.0601 71.1617 88.0601C71.8417 88.0701 72.3917 87.5101 72.3917 86.8301Z" fill="#AAD7E6"/>
    <path d="M92.6417 86.8301C92.6417 86.1501 92.0917 85.6001 91.4117 85.6001C90.7317 85.6001 90.1816 86.1501 90.1816 86.8301C90.1816 87.5101 90.7317 88.0601 91.4117 88.0601C92.0817 88.0701 92.6417 87.5101 92.6417 86.8301Z" fill="#EBEBEB"/>
    <path d="M112.881 86.8301C112.881 86.1501 112.331 85.6001 111.651 85.6001C110.971 85.6001 110.421 86.1501 110.421 86.8301C110.421 87.5101 110.971 88.0601 111.651 88.0601C112.331 88.0701 112.881 87.5101 112.881 86.8301Z" fill="#AAD7E6"/>
    <path d="M31.9015 105.51C31.9015 104.83 31.3514 104.28 30.6714 104.28C29.9914 104.28 29.4414 104.83 29.4414 105.51C29.4414 106.19 29.9914 106.74 30.6714 106.74C31.3514 106.74 31.9015 106.19 31.9015 105.51Z" fill="#AAD7E6"/>
    <path d="M52.1417 105.51C52.1417 104.83 51.5917 104.28 50.9117 104.28C50.2317 104.28 49.6816 104.83 49.6816 105.51C49.6816 106.19 50.2317 106.74 50.9117 106.74C51.5917 106.74 52.1417 106.19 52.1417 105.51Z" fill="#AAD7E6"/>
    <path d="M72.3917 105.51C72.3917 104.83 71.8417 104.28 71.1617 104.28C70.4817 104.28 69.9316 104.83 69.9316 105.51C69.9316 106.19 70.4817 106.74 71.1617 106.74C71.8417 106.74 72.3917 106.19 72.3917 105.51Z" fill="#AAD7E6"/>
    <path d="M92.6417 105.51C92.6417 104.83 92.0917 104.28 91.4117 104.28C90.7317 104.28 90.1816 104.83 90.1816 105.51C90.1816 106.19 90.7317 106.74 91.4117 106.74C92.0817 106.74 92.6417 106.19 92.6417 105.51Z" fill="#AAD7E6"/>
    <path d="M112.881 105.51C112.881 104.83 112.331 104.28 111.651 104.28C110.971 104.28 110.421 104.83 110.421 105.51C110.421 106.19 110.971 106.74 111.651 106.74C112.331 106.74 112.881 106.19 112.881 105.51Z" fill="#AAD7E6"/>
    <path d="M31.9015 124.19C31.9015 123.51 31.3514 122.96 30.6714 122.96C29.9914 122.96 29.4414 123.51 29.4414 124.19C29.4414 124.87 29.9914 125.42 30.6714 125.42C31.3514 125.42 31.9015 124.87 31.9015 124.19Z" fill="#AAD7E6"/>
    <path d="M52.1417 124.19C52.1417 123.51 51.5917 122.96 50.9117 122.96C50.2317 122.96 49.6816 123.51 49.6816 124.19C49.6816 124.87 50.2317 125.42 50.9117 125.42C51.5917 125.42 52.1417 124.87 52.1417 124.19Z" fill="#AAD7E6"/>
    <path d="M72.3917 124.19C72.3917 123.51 71.8417 122.96 71.1617 122.96C70.4817 122.96 69.9316 123.51 69.9316 124.19C69.9316 124.87 70.4817 125.42 71.1617 125.42C71.8417 125.42 72.3917 124.87 72.3917 124.19Z" fill="#AAD7E6"/>
    <path d="M92.6417 124.19C92.6417 123.51 92.0917 122.96 91.4117 122.96C90.7317 122.96 90.1816 123.51 90.1816 124.19C90.1816 124.87 90.7317 125.42 91.4117 125.42C92.0817 125.42 92.6417 124.87 92.6417 124.19Z" fill="#AAD7E6"/>
    <path d="M112.881 124.19C112.881 123.51 112.331 122.96 111.651 122.96C110.971 122.96 110.421 123.51 110.421 124.19C110.421 124.87 110.971 125.42 111.651 125.42C112.331 125.42 112.881 124.87 112.881 124.19Z" fill="#AAD7E6"/>
    <path d="M31.9015 142.86C31.9015 142.18 31.3514 141.63 30.6714 141.63C29.9914 141.63 29.4414 142.18 29.4414 142.86C29.4414 143.54 29.9914 144.09 30.6714 144.09C31.3514 144.09 31.9015 143.54 31.9015 142.86Z" fill="#EBEBEB"/>
    <path d="M52.1417 142.86C52.1417 142.18 51.5917 141.63 50.9117 141.63C50.2317 141.63 49.6816 142.18 49.6816 142.86C49.6816 143.54 50.2317 144.09 50.9117 144.09C51.5917 144.09 52.1417 143.54 52.1417 142.86Z" fill="#EBEBEB"/>
    <path d="M72.3917 142.86C72.3917 142.18 71.8417 141.63 71.1617 141.63C70.4817 141.63 69.9316 142.18 69.9316 142.86C69.9316 143.54 70.4817 144.09 71.1617 144.09C71.8417 144.09 72.3917 143.54 72.3917 142.86Z" fill="#AAD7E6"/>
    <path d="M92.6417 142.86C92.6417 142.18 92.0917 141.63 91.4117 141.63C90.7317 141.63 90.1816 142.18 90.1816 142.86C90.1816 143.54 90.7317 144.09 91.4117 144.09C92.0817 144.09 92.6417 143.54 92.6417 142.86Z" fill="#AAD7E6"/>
    <path d="M112.881 142.86C112.881 142.18 112.331 141.63 111.651 141.63C110.971 141.63 110.421 142.18 110.421 142.86C110.421 143.54 110.971 144.09 111.651 144.09C112.331 144.09 112.881 143.54 112.881 142.86Z" fill="#AAD7E6"/>
    <path d="M31.9015 161.54C31.9015 160.86 31.3514 160.31 30.6714 160.31C29.9914 160.31 29.4414 160.86 29.4414 161.54C29.4414 162.22 29.9914 162.77 30.6714 162.77C31.3514 162.77 31.9015 162.22 31.9015 161.54Z" fill="#EBEBEB"/>
    <path d="M52.1417 161.54C52.1417 160.86 51.5917 160.31 50.9117 160.31C50.2317 160.31 49.6816 160.86 49.6816 161.54C49.6816 162.22 50.2317 162.77 50.9117 162.77C51.5917 162.77 52.1417 162.22 52.1417 161.54Z" fill="#EBEBEB"/>
    <path d="M72.3917 161.54C72.3917 160.86 71.8417 160.31 71.1617 160.31C70.4817 160.31 69.9316 160.86 69.9316 161.54C69.9316 162.22 70.4817 162.77 71.1617 162.77C71.8417 162.77 72.3917 162.22 72.3917 161.54Z" fill="#EBEBEB"/>
    <path d="M92.6417 161.54C92.6417 160.86 92.0917 160.31 91.4117 160.31C90.7317 160.31 90.1816 160.86 90.1816 161.54C90.1816 162.22 90.7317 162.77 91.4117 162.77C92.0817 162.77 92.6417 162.22 92.6417 161.54Z" fill="#AAD7E6"/>
    <path d="M112.881 161.54C112.881 160.86 112.331 160.31 111.651 160.31C110.971 160.31 110.421 160.86 110.421 161.54C110.421 162.22 110.971 162.77 111.651 162.77C112.331 162.77 112.881 162.22 112.881 161.54Z" fill="#AAD7E6"/>
  </g>
</svg>