<svg xmlns="http://www.w3.org/2000/svg" width="91" height="143" viewBox="0 0 91 143" fill="none">
  <path d="M88.9659 39.4241C88.9102 39.2026 88.9288 39.0027 88.904 38.8274C88.9473 38.9166 88.9752 38.9474 88.8854 38.7628C88.873 38.6921 88.8452 38.6306 88.7987 38.566C88.7956 38.566 88.7925 38.566 88.7925 38.5629C88.743 38.4584 88.6748 38.3169 88.5881 38.1354C87.8294 36.5916 87.9626 36.3363 87.6189 36.3763C87.2689 36.4163 86.9283 36.4501 86.6279 36.4101C86.3275 36.364 86.4111 36.1918 86.1107 36.1887C85.8104 36.1856 85.2096 36.1795 85.2096 36.1795C85.2096 36.1795 85.1229 36.3486 84.7822 36.0472C84.4385 35.7427 84.2713 35.6105 84.1877 35.3091C84.101 35.0108 84.0205 34.4972 83.7232 34.3219C83.4228 34.1466 83.079 34.0605 82.9521 34.0143C82.8251 33.9682 82.6981 33.7099 82.3947 33.5776C82.0974 33.4515 81.7598 32.9748 81.6298 32.9349C81.4997 32.8918 81.2024 32.6273 80.9888 32.5012C80.7751 32.369 80.3044 32.1045 80.1774 32.0184C80.0505 31.9323 79.3568 32.0953 79.2732 31.923C79.1896 31.7539 79.0595 31.7508 78.8025 31.6647C78.5454 31.5755 78.2915 31.4033 77.9013 31.5294C77.5142 31.6524 77.4709 31.4802 77.0776 31.7324C76.6905 31.9845 76.6905 31.7723 76.3034 31.8923C75.9101 32.0184 76.003 31.8062 75.6128 31.76C75.2288 31.7108 75.1019 31.2403 74.6714 31.3202C74.2441 31.4002 74.2007 31.2741 74.0273 31.228C73.857 31.1849 73.9468 30.8866 73.4699 30.7544C72.9992 30.6221 73.1324 30.3238 72.7422 30.619C72.352 30.9143 72.8289 30.619 72.352 30.9143C71.8751 31.2065 71.4044 31.2464 71.4044 31.2464C70.9739 31.1972 71.2774 30.9051 70.9739 31.1972C70.6705 31.4925 71.0978 31.6278 70.6674 31.6647C70.2369 31.7047 70.1502 31.5294 70.4134 31.108C70.6767 30.6836 70.6983 30.6898 70.6797 30.5114C70.5992 29.7825 70.5125 29.8686 70.2152 29.5672C69.9149 29.2659 69.7848 29.3919 69.5711 29.3058C69.3605 29.2166 68.9704 29.2136 68.8434 29.0413C68.7164 28.866 68.5461 28.9491 68.416 28.7799C68.2891 28.6077 67.9484 28.5185 67.7286 28.6016C67.518 28.6815 67.1742 28.3371 67.0008 28.3801C66.8305 28.4201 66.6633 27.9865 66.4434 28.0726C66.2298 28.1525 66.2359 27.6881 65.9758 27.7681C65.7188 27.8511 65.8086 27.3837 65.5485 27.4237C65.2914 27.4606 65.2481 27.3345 65.0344 27.5436C64.8114 27.7558 64.9044 27.4144 64.6876 27.4975C64.4708 27.5836 64.2169 27.2791 63.997 27.5344C63.7833 27.7896 63.7864 27.4452 63.5666 27.8727C63.3467 28.2971 63.3188 28.3586 63.0432 28.7215C62.6499 29.232 62.6499 29.0167 62.2164 29.3919C61.7859 29.7733 61.9594 29.4381 61.7859 29.7733C61.6094 30.1147 61.6497 29.9455 61.3927 30.1547C61.1356 30.3669 61.179 30.0685 61.1356 30.3669C61.083 30.6652 61.083 30.6652 61.083 30.6652C61.083 30.6652 61.1821 29.8102 60.7919 29.9363C60.4017 30.0593 59.9248 30.1393 59.9248 30.1393C59.9248 30.1393 59.5006 29.7056 59.3302 29.7056C59.1568 29.7026 59.1568 29.6318 58.9029 29.4042C58.4755 29.0106 59.5904 29.4934 59.8071 29.4535C60.0239 29.4165 59.7638 29.4535 60.3645 29.4196C60.9715 29.3766 61.0954 29.4289 61.4019 29.3827C61.7023 29.3458 62.3929 28.9706 62.3929 28.9706C62.3929 28.9706 62.523 28.8445 62.5725 28.5862C62.6159 28.3309 62.6159 28.2879 62.7057 28.0326C62.7955 27.7773 62.7986 27.519 62.8419 27.3068C62.8884 27.0946 63.1051 26.7963 62.7181 26.7932C62.3341 26.7901 61.82 26.8701 61.6032 26.827C61.3834 26.7809 61.3029 26.6517 60.9994 26.7778C60.6959 26.9039 60.699 26.7747 60.0951 26.6425C59.4944 26.5072 59.8443 26.1258 59.324 26.5472C58.8007 26.9685 58.5437 27.0116 58.5437 27.1776C58.5406 27.3529 58.7202 27.1376 58.7542 27.6512C58.7914 28.1679 58.7852 28.5923 58.6149 28.5493C58.4446 28.5062 58.234 28.2448 58.2743 28.1618C58.3176 28.0757 58.0358 27.8942 57.977 27.7343C57.7292 27.0485 57.5094 27.0915 57.6859 26.8332C57.8655 26.5748 57.8159 26.621 58.0389 26.3226C58.2557 26.0274 57.8221 26.1504 58.4291 25.9013C59.036 25.6522 59.036 25.6922 59.3364 25.4861C59.6399 25.2708 59.77 25.2739 59.9031 25.0217C60.0301 24.7665 59.8195 24.6773 60.0363 24.379C60.2562 24.0806 60.3769 24.9818 60.2128 23.9115C60.2128 23.9115 60.1354 23.3948 60.1787 23.2687C60.219 23.1426 60.0982 22.8843 59.9682 22.8382C59.8381 22.7951 59.4541 22.4507 59.3271 22.4507C59.2002 22.4507 58.9462 22.1031 58.7728 22.1431C58.5963 22.1831 58.6459 21.7987 58.6025 21.6295C58.5622 21.4604 58.6521 21.202 58.6551 20.9898C58.6582 20.7776 58.7914 20.5623 58.4879 20.2609C58.1906 19.9596 58.3641 19.7473 58.1968 19.449C58.0265 19.1446 58.3703 19.2799 58.0296 18.7171C57.6952 18.1635 57.2616 18.2435 57.2616 18.2435C57.2616 18.2435 57.1873 18.1235 57.0851 17.9759C56.9241 17.7545 56.7104 17.4592 56.5803 17.3854C56.3698 17.2532 55.6885 16.6042 55.4284 16.512C55.1713 16.4259 54.9577 16.2905 54.6542 16.1644C54.3569 16.0353 54.3197 15.6939 53.9326 15.7708C53.5424 15.8508 53.8057 15.4263 53.4557 15.4233C53.1151 15.4202 53.2885 15.1711 53.0315 15.208C52.7745 15.2449 52.8612 14.9066 52.601 14.9466C52.5701 14.9527 52.5329 14.9527 52.4896 14.9527C52.2449 14.9343 51.9291 14.7866 51.7433 14.8974C51.5265 15.0204 51.5729 14.8943 51.2261 15.0173C50.8793 15.1465 50.7089 14.6729 50.4519 14.8359C50.1949 15.005 50.5386 14.7559 49.9781 14.7497C49.4176 14.7436 49.334 14.6144 49.0336 14.7405C48.727 14.8666 48.8106 15.0757 48.6403 15.1219C48.47 15.1619 48.6032 14.6944 48.0829 14.9435C47.5627 15.1926 47.6525 15.0265 47.3892 15.1526C47.253 15.2234 47.1942 15.1711 47.1415 15.0942C47.0951 15.0296 47.0517 14.9404 46.9619 14.8881C46.4509 14.5837 46.4107 14.4145 46.2001 14.1131C45.9864 13.8117 45.0481 13.2028 45.0048 13.2428C44.9552 13.2889 44.9583 13.0706 44.6579 13.1167C44.3576 13.1536 43.9302 13.3443 43.8868 13.0613C43.8032 12.5477 43.8466 12.723 43.8032 12.3786C43.7661 12.0372 43.5524 11.9511 43.4285 11.7358C43.3016 11.5205 43.3852 11.3083 43.0445 11.2222C42.7008 11.1299 42.6141 11.0838 42.4871 10.8685C42.3602 10.6563 42.1496 10.5671 41.8895 10.481C41.7129 10.4195 41.5581 10.3026 41.4188 10.2319C41.3568 10.2012 41.298 10.1796 41.2453 10.1796C41.0719 10.1766 41.1648 9.92129 40.9078 9.78597C40.6508 9.6568 40.5672 9.35541 40.1832 9.35234C39.7961 9.34926 39.5576 9.20779 39.3223 9.34311C38.5852 9.76137 38.3251 9.80443 38.4583 9.54609C38.5914 9.29083 38.5481 9.29083 38.8051 8.99558C39.0683 8.70034 39.2882 8.31591 39.2882 8.31591C38.8175 7.84229 38.9104 7.63009 38.6503 7.62701C38.3932 7.62393 38.3963 7.45478 38.0495 7.5778C37.7027 7.70697 37.6624 7.61778 37.5788 7.39943C37.4921 7.19337 37.6686 6.97809 37.5386 6.93196C37.4116 6.89198 37.1515 7.14109 36.8882 7.31024C36.6281 7.47939 36.3277 7.43326 36.2844 7.30409C36.2441 7.18107 36.2503 6.75051 36.2503 6.75051C36.2503 6.75051 35.6 7.12879 35.5164 6.83047C35.4359 6.52908 35.439 6.39991 35.5721 6.23076C35.7022 6.06161 34.8351 6.52292 35.7022 6.06161C36.0614 5.87093 36.2844 5.71408 36.4392 5.61259C36.0088 5.57261 35.4111 5.4865 35.3585 5.58799C35.2717 5.75714 34.6679 5.79712 34.4542 5.74791C34.2405 5.70486 34.3241 5.57569 33.8101 5.70178C33.2929 5.82172 33.4292 5.3112 32.7727 5.94474C32.1224 6.58136 32.1224 6.58136 32.1224 6.58136C32.1224 6.58136 31.3482 6.40606 31.0881 6.48602C30.831 6.56906 30.7041 6.35378 30.2334 6.26459C29.7596 6.17232 30.063 6.00625 29.676 5.87093C29.2889 5.74176 29.5118 5.35733 29.1185 5.5234C28.7284 5.68948 28.8182 5.69255 28.3413 5.6864C27.8706 5.68025 28.6881 5.3481 27.6104 5.67718C26.5328 6.00933 26.7867 6.35685 26.2324 6.00625C25.6781 5.65872 26.0218 5.70486 25.6781 5.65872C25.5821 5.64335 25.5387 5.66795 25.5201 5.69563C25.514 5.6864 25.5109 5.67103 25.5078 5.65565C25.3808 5.3112 25.0402 4.92677 25.0402 4.92677C25.0402 4.92677 25.1764 4.37011 24.7893 4.36704C24.4022 4.36396 23.8417 4.18559 23.5413 4.18251C23.241 4.17943 23.114 3.96108 22.9034 3.9211C22.6835 3.87804 22.857 3.66276 22.6897 3.40442C22.5225 3.14608 22.8662 2.72167 22.442 2.67554C22.0177 2.60788 21.9806 2.18347 21.674 2.60481C21.3674 3.02922 21.1073 3.37059 21.064 3.62585C21.0144 3.88419 21.5347 3.71504 21.0144 4.0964C20.4942 4.47468 20.1969 4.34551 19.7169 4.54849C19.2431 4.75762 19.1595 4.80067 19.0666 5.05594C18.9768 5.31735 18.9768 5.31735 19.017 5.65565C19.0542 6.0001 19.785 6.04931 19.7819 6.55983C19.7757 7.07343 19.9491 6.73206 19.8996 7.45786C19.8469 8.18367 20.3238 8.06065 19.8438 8.43893C19.3669 8.82028 19.2431 8.56195 18.986 8.47583C18.7259 8.38665 18.2645 7.65776 18.2243 7.3533C18.1871 7.05498 17.7102 7.26718 18.3636 6.46142C19.017 5.65565 18.599 4.36704 18.5587 4.24094C18.5184 4.11793 18.2335 4.18559 18.2614 3.88112C18.2614 3.86881 18.2583 3.86574 18.2614 3.85344C18.311 3.51206 18.2212 3.42595 18.568 3.4321C18.9117 3.43518 19.2957 3.52436 19.4722 3.35521C19.6457 3.18299 20.0389 2.89082 19.9058 2.71552C19.7819 2.5433 20.0389 2.89082 20.0389 2.89082C20.0389 2.89082 20.2093 2.97386 20.3393 2.93695C20.4694 2.8939 20.3827 2.80471 20.3424 2.58943C20.3022 2.37722 20.3889 2.0789 20.0018 2.03585C19.6178 1.98972 19.6209 1.98972 19.144 2.02662C18.6671 2.0666 18.5835 2.06045 18.1964 2.26958C17.8031 2.48179 17.5461 2.7309 17.4532 2.94311C17.3665 3.15531 17.4098 3.2445 16.9329 3.49669C16.4591 3.7458 16.5892 3.66276 16.199 3.958C15.8088 4.25325 16.2423 4.21634 15.8088 4.25325C15.3784 4.29323 15.9358 4.38241 15.3784 4.29323C14.8209 4.20096 14.9077 3.90264 14.5206 4.06872C14.1335 4.23479 14.9138 3.39212 14.1335 4.23479C13.3469 5.08054 13.9601 4.70226 13.2664 4.73917C12.5758 4.77607 12.3621 4.72994 12.102 4.89909C11.8388 5.06516 11.7521 5.36348 11.492 5.61567C11.2318 5.86785 11.4455 5.4865 11.3588 6.12619C11.2628 6.76896 11.3836 7.41173 11.1265 7.66392C10.8633 7.91918 10.9098 7.91918 10.6497 7.9161C10.3895 7.91303 10.3524 7.61471 10.0458 8.0791C9.73921 8.54657 9.5596 9.01404 9.29948 9.18319C9.04245 9.34926 9.0858 9.22317 8.86903 9.56454C8.64916 9.90284 8.77923 9.85978 8.64917 10.1181C8.612 10.1858 8.57175 10.2012 8.5222 10.195C8.39214 10.6656 8.03911 11.0561 7.44763 11.01C7.59008 11.4344 7.21538 11.7143 6.87474 11.9419C7.07293 12.1264 7.22777 12.2648 7.22777 12.2648C7.22777 12.2648 7.18132 12.3078 7.18132 12.4524C7.17822 12.6031 7.22467 12.52 7.30828 12.7538C7.39499 12.9906 7.65202 13.0336 7.62724 13.1843C7.60247 13.332 7.84092 13.3566 7.72944 13.6118C7.62105 13.8671 7.68298 14.0147 7.68298 14.1685C7.67989 14.3192 7.7635 14.7651 7.7604 14.9373C7.75731 15.1126 7.51886 15.2787 7.53744 15.5371C7.55602 15.7892 7.62105 15.6416 7.72634 15.9215C7.83163 16.2014 7.97717 16.3274 7.9555 16.5181C7.93382 16.715 7.97098 16.9056 7.92763 17.1394C7.88118 17.3762 7.92453 17.5515 7.8564 17.7791C7.78827 18.0159 7.91214 18.551 7.99575 18.6617C8.08246 18.7694 8.2342 18.5541 8.03601 18.8985C7.84092 19.2337 7.73253 19.2583 7.59937 19.4244C7.46931 19.5936 7.49099 19.6182 7.36093 19.8304C7.22777 20.0426 7.22777 20.018 7.14106 20.2148C7.05125 20.4024 7.07293 20.4239 6.87784 20.5347C6.68584 20.6361 6.83758 20.4239 6.68584 20.6361C6.5341 20.8484 6.86235 20.6392 6.5341 20.8484C6.20894 21.0575 6.03862 20.9099 5.88688 20.9867C5.73824 21.0729 5.7785 21.0083 5.60818 21.0729C5.43786 21.1313 5.09102 21.2605 5.08793 21.5157C5.08483 21.771 5.0167 22.0078 4.97644 22.1985C4.92999 22.3953 4.94857 22.3276 4.84638 22.3461C4.7349 22.3676 4.79683 22.5798 4.75348 22.6413C4.71942 22.6936 4.64509 22.8105 4.60174 22.9427C4.58935 22.9766 4.58006 23.0104 4.57697 23.0504C4.55529 23.2195 4.72251 23.3733 4.70083 23.4963C4.67916 23.6255 4.50264 23.6224 4.354 23.6224C4.20536 23.6193 4.0722 23.5363 3.92356 23.5978C3.77182 23.6593 3.40331 23.8315 3.33827 23.893C3.27324 23.9546 3.27324 23.9976 3.16176 24.0622C3.05647 24.1237 2.73132 24.0591 2.64461 24.1206C2.561 24.1852 2.57958 24.0314 2.40926 24.1852C2.23584 24.3328 2.19248 24.2252 2.19248 24.4405C2.18939 24.6496 2.05932 24.7572 2.21106 24.9264C2.35971 25.1017 2.31635 25.1448 2.35661 25.2739C2.39687 25.4 2.4619 25.2955 2.44022 25.5077C2.41235 25.7229 2.52383 25.4677 2.22345 25.7414C1.91997 26.0182 1.74656 26.0797 1.69701 26.2304C1.65675 26.378 1.69701 26.3565 1.71868 26.5502C1.74036 26.744 1.75585 26.744 1.73726 26.9377C1.71249 27.1346 1.72797 27.6635 1.64127 27.7681C1.54527 27.8634 1.35017 28.0541 1.22011 28.2879C1.08695 28.5247 1.08695 28.374 1.08695 28.6292C1.08386 28.8845 1.27895 28.8445 1.14889 29.0567C1.01882 29.272 0.891858 29.0352 1.01882 29.272C1.14269 29.5088 1.55146 29.5549 1.4214 29.6595C1.29443 29.761 1.26966 29.7425 1.2263 29.8717C1.18295 30.0009 1.16127 30.0409 1.35017 30.1977C1.54217 30.3453 1.82088 30.3269 1.81778 30.5637C1.81468 30.8036 2.01287 30.9297 2.01287 30.9297C2.01287 30.9297 2.31016 31.0773 2.39687 30.9081C2.48667 30.739 2.59506 30.6098 2.68177 30.4191C2.76848 30.2285 2.96357 29.7241 3.01312 29.8256C3.13699 30.0778 2.87376 30.8466 2.87376 30.8466C2.87376 30.8466 3.08434 30.8497 2.9326 31.1696C2.77777 31.4894 2.23893 31.8677 2.23893 31.8677C2.23893 31.8677 2.22965 31.8708 2.21416 31.8769C2.15223 31.9169 1.96023 32.0276 1.87042 32.1014C1.76204 32.1845 1.57004 32.1814 1.37495 32.3505C1.17676 32.5197 1.39353 32.2644 1.04669 32.5566C0.702958 32.8518 0.551218 32.9349 0.461413 33.0856C0.377801 33.2363 0.263222 33.7037 0.219868 33.8544C0.17032 34.002 0.0371608 34.1927 0.0154836 34.3834C-0.00619346 34.5771 -0.00309673 34.3188 0.0123869 34.7278C0.0278706 35.14 0.0278706 35.0262 0.157933 35.306C0.284899 35.5859 0.201287 35.5828 0.411865 35.7366C0.625539 35.8873 0.693667 35.6966 0.774182 36.0195C0.857794 36.3394 0.941406 36.2563 0.901148 36.4901C0.854697 36.7238 1.02811 36.6654 0.789666 36.8315C0.548121 36.9975 0.594572 36.7884 0.548121 36.9975C0.504767 37.2128 0.588379 37.1298 0.545024 37.3204C0.50167 37.5111 0.740118 37.4927 0.990953 37.7725C1.24798 38.0524 1.67843 38.1416 1.74036 38.1416C1.80849 38.1416 1.84875 38.1231 1.95713 38.1662C2.06552 38.2093 2.38758 38.2123 2.3659 38.323C2.33803 38.4307 2.59816 38.6429 2.70035 38.7751C2.80873 38.9043 3.10912 39.0365 3.10602 39.2057C3.10292 39.3748 3.10292 39.4825 3.16486 39.6117C3.22679 39.7408 3.44047 40.0422 3.44047 40.1037C3.44047 40.1714 3.75943 40.3252 3.75633 40.5343C3.75324 40.7496 4.11555 41.3308 4.15891 41.4385C4.19916 41.543 4.15891 41.543 4.28278 41.7153C4.41284 41.8875 4.47787 41.9951 4.5398 42.1458C4.60174 42.2965 4.66677 42.3611 4.75658 42.4657C4.83709 42.5733 4.9238 42.6194 4.98883 42.7056C5.05386 42.7917 5.20251 42.7947 5.28612 42.9424C5.36973 43.0931 5.56482 43.0777 5.58031 43.3114C5.59889 43.5482 5.73205 43.7389 5.76921 44.0157C5.80946 44.2925 5.89617 44.3386 6.04172 44.8553C6.18726 45.3658 6.39475 45.7533 6.48145 45.9901C6.56507 46.23 6.56816 46.0978 6.65177 46.2915C6.73848 46.4853 7.03267 47.002 7.18132 47.1957C7.32996 47.3895 7.54673 47.3679 7.60866 47.6263C7.6675 47.8846 7.72944 48.1183 7.81305 48.3305C7.89976 48.5458 8.11343 48.7826 8.17537 48.8872C8.2404 48.9979 8.3271 48.9303 8.49123 49.3208C8.65845 49.7083 8.46955 49.6837 8.76684 50.0282C9.06413 50.3726 9.2778 50.3357 9.29948 50.6095C9.31806 50.8862 9.4667 51.1046 9.50386 51.2768C9.54412 51.449 9.69896 51.3629 9.63083 51.6859C9.5658 52.0057 9.45741 52.0457 9.43264 52.2794C9.41096 52.5162 9.36451 52.4516 9.45122 52.6423C9.52864 52.8391 9.57818 52.8391 9.77018 53.0329L10.5165 53.6388C10.5165 53.6388 10.4267 53.9832 10.6373 54.2416C10.8509 54.4999 10.9346 54.2446 11.0213 54.503C11.1018 54.7582 11.6654 54.6783 11.7056 54.8105C11.749 54.9366 12.0463 55.1088 12.0463 55.2811C12.0432 55.4533 12.2538 55.5917 12.3869 55.6716C12.901 55.973 13.1611 55.85 13.3314 56.0622C13.5017 56.2836 14.4834 57.0587 14.7404 57.1048C14.9944 57.1479 15.1244 57.3662 15.3815 57.4492C15.6354 57.5384 15.8584 57.2862 16.0658 57.5046C16.2795 57.7168 16.5768 57.8491 16.7069 57.9782C16.8338 58.1043 17.0103 58.0674 17.1807 58.1566C17.351 58.2427 17.5646 58.1997 17.6947 58.2888C17.8248 58.3719 18.1654 58.4211 18.4627 58.8516C18.76 59.2853 18.9675 59.5959 19.0108 59.7158C19.2617 60.3555 19.6549 60.5247 19.7757 60.617C20.33 61.0506 19.7788 60.3186 20.33 61.0506C20.4198 61.1644 20.488 61.2566 20.553 61.3305C20.9029 61.7456 20.9587 61.6749 20.8843 61.7825C20.7945 61.9117 20.7047 62.25 20.7852 62.5514C20.872 62.8497 20.9091 63.3203 20.9494 63.5356C20.9927 63.7508 21.0299 63.9661 21.0732 64.1322C21.1166 64.3075 21.1166 64.3475 21.067 64.6888C21.0175 65.0302 20.9772 65.0733 20.9741 65.3747C20.971 65.6699 20.9277 65.6238 21.0547 65.9282C21.1754 66.2296 21.1816 65.7991 21.3055 66.4418C21.4263 67.0846 21.4696 67.1707 21.3396 67.469C21.2064 67.7643 21.0732 67.9611 21.033 68.1456C20.8503 68.9576 20.8131 68.7054 20.8069 69.2128C20.8007 69.7264 21.1104 68.7884 20.7543 69.9417C20.3982 71.0889 20.4013 70.7475 20.3982 71.0888C20.4725 72.0299 20.4663 72.1345 20.4694 72.2852C20.5034 73.1832 20.3114 75.4037 20.0916 75.7881C19.8717 76.1695 19.7014 76.2525 19.6983 76.637C19.6952 77.0214 19.9925 77.1075 19.816 77.535C19.6395 77.9594 19.7695 77.8794 19.6364 78.39C19.5032 78.8974 19.6364 78.3038 19.5032 78.8974C19.3638 79.494 19.4506 79.494 19.3143 79.9215C19.1811 80.349 19.4072 79.5832 19.1811 80.349C18.9613 81.1117 19.0511 80.5612 18.9148 81.3301C18.7786 82.0989 19.082 81.5884 18.7786 82.0989C18.7073 82.2189 18.6733 82.2373 18.6578 82.2189C18.6547 82.2312 18.6547 82.2466 18.6485 82.265C18.4689 83.2061 18.5092 83.2061 18.633 83.6336C18.7569 84.0642 19.017 83.8519 18.8405 84.3625C18.6609 84.873 18.5804 84.9837 18.4875 85.2144C18.2212 85.851 18.2212 85.851 18.2212 85.851C18.2521 87.0473 17.9455 87.5117 18.0292 87.9023C18.1097 88.2867 18.0199 88.7112 18.0168 89.0956C18.0137 89.48 18.184 89.5261 18.1778 89.9106C18.1747 90.295 18.3017 90.3811 18.215 90.7194C18.1252 91.0639 18.0818 91.0608 17.9517 91.4452C17.8155 91.8297 17.7257 92.0449 17.5956 92.2541C17.4687 92.4663 17.7257 92.168 17.5925 92.6385C17.4625 93.109 17.289 93.149 17.0692 93.5704C16.8462 93.9948 16.809 93.7826 16.806 94.2131C16.8029 94.6375 17.0599 94.4715 16.967 95.025C16.8741 95.5786 16.7471 95.4095 16.5272 95.8739C16.3074 96.3475 16.0875 96.7258 15.9141 96.981C15.7407 97.2363 15.911 97.4054 15.7314 97.919C15.5518 98.4296 15.7252 98.4296 15.5022 98.7709C15.2855 99.1092 15.2018 98.8509 15.0656 99.2323C14.9355 99.6167 14.8736 99.6382 14.632 99.915C13.8486 100.804 14.0622 100.807 14.0561 101.404C14.0499 102.003 14.0127 101.576 14.1335 102.262C14.2542 102.944 13.9136 102.471 14.2542 102.944C14.5918 103.418 14.5484 103.676 14.5887 103.842C14.6289 104.015 14.6661 104.743 14.6661 104.743C14.6661 104.743 14.7869 105.042 14.7466 105.168C14.7002 105.297 14.7869 105.211 14.5268 105.592C14.2635 105.98 14.3533 105.635 14.2635 105.98C14.1768 106.318 14.1768 106.318 14.1768 106.318C14.1768 106.318 14.3007 106.792 14.0808 107.213C13.861 107.637 13.9477 107.554 13.6844 107.936C13.4243 108.32 13.4274 107.976 13.4243 108.32C13.4212 108.662 13.4181 108.917 13.5451 109.132C13.669 109.347 13.7557 109.434 13.9291 109.606C14.0963 109.778 14.2326 109.796 14.3998 109.867C14.9138 110.086 14.9541 110.086 15.174 109.962C15.3876 109.833 15.3876 109.661 15.7345 109.836C16.0782 110.015 16.3322 109.975 16.1185 110.267C15.8986 110.562 15.4991 110.292 15.6385 110.648C15.8026 111.076 15.9822 110.864 15.8924 111.291C15.7995 111.722 15.976 111.463 15.7995 111.722C15.6261 111.974 15.7562 112.02 15.7933 112.232C15.8367 112.444 15.4496 112.441 15.4465 112.654C15.4434 112.866 15.4434 112.952 15.3938 113.253C15.3474 113.548 15.4775 113.339 15.3474 113.548C15.2173 113.764 15.3164 112.78 15.2173 113.764C15.1244 114.742 15.208 114.57 15.1244 114.742C15.0346 114.911 15.0315 115.212 15.0284 115.381C15.0253 115.554 14.9882 115.424 15.0253 115.723C15.0687 116.024 15.2762 116.061 15.4093 116.196C15.8336 116.627 15.6168 116.839 15.4867 117.008C15.4867 117.008 14.8953 116.879 14.8364 117.307C14.694 118.285 14.5268 118.282 14.694 118.285C14.8612 118.288 15.3784 119.02 15.1585 119.017C14.9479 119.014 14.9077 118.457 14.5608 118.792C14.214 119.133 14.1706 119.217 14.1675 119.389C14.1644 119.558 14.3781 119.733 14.3317 120.028C14.2883 120.33 13.9384 120.708 13.9384 120.708C13.4553 121.391 13.4553 121.391 13.4553 121.391C13.4553 121.391 12.9815 121.769 13.0682 121.514C13.158 121.259 13.2788 120.97 13.0341 120.911C12.4303 120.779 12.133 120.481 12.4334 120.397C12.4334 120.397 12.0122 119.795 11.8388 119.921C11.2287 120.342 11.0553 120.508 11.0956 120.677C11.1389 120.846 11.3557 120.81 11.2628 121.065C11.1792 121.323 11.1792 121.234 10.8324 121.446C10.4855 121.652 9.67109 121.563 9.88166 121.904C10.0922 122.249 10.6497 122.55 10.7797 122.47C10.9098 122.384 11.4362 121.834 11.4362 121.834C11.4362 121.834 11.9069 121.84 11.8605 122.055C11.8171 122.264 11.6871 122.31 11.9007 122.44C12.1144 122.566 12.8545 121.72 12.8112 122.021C12.7616 122.323 12.9381 122.021 12.8483 122.492C12.7554 122.962 12.8483 122.492 12.7554 122.962C12.6625 123.433 12.0649 123.082 11.9751 123.424C11.8852 123.765 11.9317 123.722 12.1856 124.066C12.4396 124.408 13.0465 123.907 13.0465 124.162C13.0434 124.414 12.6099 124.838 13.0001 124.629C13.3872 124.42 13.3035 124.205 13.5606 124.466C13.8145 124.728 14.437 124.971 14.2419 125.072C13.6783 125.364 13.1208 125.275 13.1208 125.275C13.1208 125.275 12.6966 125.014 12.5634 125.352C12.4303 125.693 12.3838 125.819 12.5139 125.952L11.7738 126.841C11.7738 126.841 12.3745 126.89 12.4148 127.231C12.4519 127.573 13.1797 127.923 12.9196 128.261C12.6625 128.6 12.5232 129.196 12.5232 129.196C12.5232 129.196 12.7802 129.286 12.6904 129.501C12.6006 129.713 12.4334 129.449 12.2569 129.793C12.0834 130.134 12.1237 130.393 12.2104 130.516C12.2909 130.648 12.9784 130.952 12.8886 131.125C12.8019 131.294 12.8669 131.365 12.5387 131.589C11.9317 132.013 11.8914 131.669 11.6313 131.924C11.3681 132.176 11.2876 131.964 11.6685 132.312C12.0525 132.656 12.2661 132.742 12.6532 132.745C13.0403 132.748 12.9598 132.238 13.2137 132.669C13.4677 133.096 13.7681 133.225 13.765 133.619C13.7619 134.003 13.6752 133.914 13.7123 134.255C13.7526 134.597 13.9632 134.729 14.0963 134.686C14.2264 134.649 14.4772 134.947 14.5732 134.52C14.663 134.092 14.6661 133.797 14.7497 133.88C14.8364 133.966 15.1368 133.883 15.2638 133.969C15.3938 134.059 15.6044 134.317 15.7376 134.234C15.8676 134.145 16.1278 133.766 16.0813 134.025C16.038 134.277 15.9884 134.575 15.9853 134.874C15.9822 135.175 15.5146 134.954 15.3815 135.212C15.2483 135.464 15.5518 135.295 15.5084 135.636C15.4589 135.981 15.8955 135.387 15.719 135.984C15.5363 136.577 16.2826 135.433 16.5365 135.864C16.7905 136.294 17.1342 136.208 17.3479 136.384C17.5616 136.559 17.9084 136.347 17.9486 136.734C17.9858 137.119 18.0725 137.245 18.1128 137.374C18.1561 137.5 18.6268 137.891 18.28 137.974C17.9332 138.054 17.639 137.58 17.3324 137.878C17.0258 138.174 16.9453 137.918 16.8555 138.346C16.7657 138.77 16.8555 138.469 16.936 138.856C17.0165 139.244 16.6294 139.37 17.1435 139.499C17.6576 139.631 18.2181 139.637 18.3884 139.727C18.5587 139.813 19.0418 139.351 19.0449 139.093C19.048 138.838 19.0511 138.58 18.9644 138.281C18.8839 137.983 19.3608 137.472 19.3608 137.472L19.7664 137.22L20.2278 136.931C20.2278 136.931 19.9275 136.67 20.4446 136.55C20.9618 136.424 21.2652 136.639 21.3055 136.639C21.355 136.639 21.355 136.639 21.355 136.639C21.355 136.639 21.8226 136.9 21.0856 137.153C20.3579 137.402 19.658 138.075 19.8686 138.207C20.0854 138.34 20.7729 138.346 20.9029 138.392C21.0299 138.438 21.5068 138.312 21.4572 138.521C21.417 138.736 21.1507 139.032 21.1507 139.032C21.1507 139.032 20.5994 138.598 20.5499 139.112C20.5034 139.625 20.5871 139.628 20.584 139.963C20.5809 140.311 21.355 140.4 21.3519 140.612C21.3489 140.825 21.8196 140.874 21.3922 140.997C20.9618 141.123 20.618 140.948 20.618 140.948C20.618 140.948 19.4165 140.723 19.2833 140.892C19.1533 141.058 18.856 141.015 18.5928 141.221C18.3326 141.437 18.1964 141.904 18.4968 141.821C18.8002 141.738 19.5682 142.221 19.6983 142.092C19.8284 141.963 20.3053 142.055 20.5158 142.015C20.7326 141.975 21.3334 141.938 21.3334 141.938C21.3334 141.938 21.3736 142.153 21.6307 142.368C21.8846 142.581 22.315 142.633 22.4451 142.547C22.5752 142.461 22.0177 142.328 22.8291 142.55C22.9096 142.571 22.9746 142.584 23.0397 142.599C23.6528 142.725 23.7117 142.528 23.9067 142.648C24.1173 142.777 24.7893 142.479 24.938 142.571C25.4954 142.916 25.6688 142.747 25.8825 142.882C26.0961 143.008 26.3098 142.756 26.5297 142.845C26.7403 142.931 27.2605 142.811 27.2605 142.811C27.2605 142.811 27.9046 142.645 27.7808 142.817C27.6507 142.99 28.3351 143.036 28.5518 142.913C28.7686 142.784 29.5025 142.452 29.5025 142.452L29.3291 142.233C29.3291 142.233 29.6388 141.769 29.2053 141.809C28.7779 141.843 28.3072 141.541 27.8768 141.578C27.4463 141.618 26.9323 141.397 26.9323 141.397C26.9323 141.397 26.635 140.969 26.3346 140.751C26.0373 140.536 25.9939 140.662 25.9103 140.363C25.8267 140.062 25.8732 139.548 25.6161 139.674C25.3529 139.797 25.1021 139.539 24.8853 139.453C24.6716 139.361 24.2938 138.589 24.1638 138.463C24.0399 138.33 23.9067 138.327 23.9997 137.946C24.0895 137.562 24.266 137.306 24.0523 137.26C23.8386 137.217 23.7984 136.62 23.4113 136.83C23.0242 137.039 22.9777 137.039 22.7641 137.036C22.7517 137.036 22.7486 137.033 22.7424 137.033C22.5473 136.999 22.4977 136.605 22.0797 136.473C21.6554 136.341 21.4758 136.294 21.4789 136.039C21.4789 135.925 21.4851 135.845 21.5037 135.775C21.5285 135.682 21.5811 135.618 21.705 135.572C21.9217 135.489 22.1757 135.535 22.5628 135.75C22.9468 135.965 23.2471 136.101 23.5475 136.061C23.851 136.021 24.0244 135.765 23.7674 135.593C23.5135 135.418 23.2193 134.735 23.0087 134.434C22.7981 134.129 22.5844 133.659 22.5442 133.53C22.5008 133.4 22.6371 132.804 22.5999 132.549C22.5597 132.29 22.3491 131.817 22.6061 131.866C22.8662 131.909 22.6959 131.568 23.1759 131.06C23.6528 130.553 23.786 130.254 24.1297 130.343C24.4704 130.433 24.8605 130.393 24.9008 130.267C24.9472 130.14 24.78 129.409 24.8729 129.239C24.9596 129.07 25.5759 127.797 25.7524 127.499C25.9258 127.2 26.2262 127.246 26.5328 127.037C26.8332 126.828 27.2667 126.831 27.7436 126.367C28.2205 125.903 28.7407 125.693 28.7841 125.481C28.8305 125.269 29.0071 125.057 28.9204 124.881C28.8367 124.709 28.9668 124.623 28.493 124.537C28.0223 124.445 28.3258 124.02 28.589 123.854C28.846 123.685 28.9761 123.814 28.8522 123.341C28.7284 122.87 28.7748 122.572 28.558 122.569C28.3444 122.566 28.174 122.44 27.9542 122.48C27.7436 122.516 27.3132 122.51 27.0933 122.47C26.8827 122.421 26.3656 122.375 26.2819 122.074C26.1983 121.772 25.8546 121.686 25.8205 121.216C25.7803 120.748 25.9568 120.361 26.1333 120.148C26.3067 119.939 26.4863 119.383 26.5297 119.217C26.573 119.041 26.5328 118.958 26.7093 118.832C26.8827 118.706 27.3999 118.411 27.3999 118.411C27.3999 118.411 27.2264 118.666 27.8706 118.328C28.5209 117.996 29.1309 117.359 29.2145 117.485C29.2982 117.62 29.5923 118.303 29.9051 117.411C30.2148 116.516 30.3077 115.834 30.3077 115.834L30.0507 115.403L30.3603 114.892C30.3603 114.892 30.5709 113.89 30.7567 113.831C31.4039 113.625 31.5773 113.324 31.5773 113.324C31.5773 113.324 30.8992 112.632 30.9394 112.46C30.9859 112.291 31.0726 112.121 31.2894 112.168C31.503 112.211 31.565 111.974 31.7632 112.214C32.2277 112.77 31.9644 113.112 32.2679 113.072C32.5683 113.032 32.5559 114.145 32.9151 112.909C33.2713 111.672 33.5778 111.377 33.1009 111.371C32.6302 111.365 32.4228 110.854 32.1131 111.193C31.8096 111.528 31.5897 111.958 31.5897 111.958C31.0757 111.823 30.7505 111.648 30.7381 111.479C30.701 111.005 30.4842 111.048 30.5276 110.747C30.5771 110.448 30.7072 110.153 30.7536 109.941C30.797 109.729 30.7567 109.64 30.8434 109.341C30.9363 109.046 30.3325 108.785 30.5492 108.486C30.7722 108.191 30.5523 108.231 31.2398 108.406C31.9273 108.585 32.5311 108.419 32.4444 108.72C32.3546 109.015 32.5219 109.406 32.9523 109.409C33.3827 109.412 33.6831 109.289 33.8968 109.335C34.1105 109.378 34.5038 109.341 34.6338 109.298C34.7577 109.258 35.1912 109.132 35.3244 108.963C35.4514 108.797 36.5321 108.677 35.8446 108.412C35.1572 108.148 35.0736 108.065 35.1603 107.85C35.247 107.641 35.6867 107.259 35.6867 107.259C35.9066 106.45 36.08 106.364 36.0831 106.106C36.0862 105.851 36.3866 105.897 36.1357 105.38C35.8818 104.863 35.5504 104.602 35.7548 104.522C36.6188 104.19 36.5321 104.402 36.9595 104.445C37.393 104.494 36.7891 104.488 37.393 104.494C37.9938 104.5 38.2508 104.461 38.2508 104.461C38.2508 104.461 38.4676 104.593 39.155 104.47C39.8487 104.353 42.131 103.778 42.3044 103.781C42.4778 103.784 42.9516 103.704 42.9516 103.704C42.9516 103.704 43.2954 103.449 43.3821 103.578C43.4657 103.71 43.7289 103.2 43.859 103.283C43.9859 103.369 44.3328 103.077 44.4659 102.947C44.596 102.821 44.596 102.692 44.7694 102.606C44.9428 102.523 45.1999 102.271 45.1999 102.271C45.5529 101.846 45.7697 101.339 45.7697 101.339C45.7697 101.339 45.9028 101.038 46.1196 100.915C46.3364 100.788 46.3364 100.662 46.3797 100.487C46.4231 100.321 46.2961 100.573 46.3859 99.9765C46.4788 99.3768 46.5655 99.7182 46.4819 99.2046C46.3983 98.691 46.5779 98.6941 46.1877 98.5618C45.7975 98.4326 45.7604 98.2174 45.6768 98.0021C45.5931 97.7868 45.6737 98.3465 45.5931 97.7868C45.5126 97.2301 45.7759 97.101 45.7294 96.8888C45.6458 96.5013 45.8254 96.0369 45.652 95.9938C45.4817 95.9477 45.6179 95.351 45.2277 95.431C44.8406 95.514 43.8992 94.9912 43.6825 94.902C43.4688 94.819 43.3852 94.6898 43.2582 94.5114C43.1281 94.3423 43.0879 94.2131 43.1343 93.8656C43.1839 93.5273 43.4347 94.0009 43.3542 93.2782C43.2768 92.5493 43.6236 92.3371 43.5369 92.211C43.4533 92.0788 43.3232 91.9927 43.4564 91.6943C43.5896 91.396 43.3294 91.4391 43.5896 91.2269C43.8497 91.0147 43.9364 91.0147 43.8528 90.5872C43.7816 90.1966 43.8466 89.886 43.8559 89.8275C43.859 89.8214 43.859 89.8152 43.859 89.8152C43.859 89.8152 44.0665 90.5872 44.0169 91.0147C43.9736 91.4452 43.8868 91.4821 43.8838 91.7774C43.8807 92.0788 43.8807 92.9399 43.8249 93.0629C43.5617 93.6595 43.3883 93.7856 43.5152 93.9179C43.6422 94.0471 43.9395 94.6498 44.2368 94.5637C44.5403 94.4838 44.4195 94.3361 44.7137 94.4838C45.2246 94.7452 45.6179 94.4469 45.6551 94.7483C45.6984 95.0496 46.0391 95.2219 46.2961 95.3541C46.55 95.4833 46.9929 95.4648 47.1539 95.5325C47.5874 95.7109 47.5379 95.7078 47.7578 95.674C47.9683 95.6309 48.2285 95.717 48.4452 95.6371C48.662 95.5509 48.5753 95.3818 48.919 95.4679C49.2628 95.5571 49.5353 95.4833 49.6932 95.5632C50.2909 95.8708 51.2013 95.4925 51.2013 95.4925C51.2013 95.4925 51.5915 94.9851 51.7216 94.9451C51.8516 94.9051 51.9817 94.9482 52.2883 94.5207C52.5918 94.0993 52.8116 93.5458 52.9448 93.4596C53.0717 93.3797 53.2018 93.2905 53.4248 92.9091C53.6415 92.5247 53.8583 92.3156 54.0751 92.1034C54.295 91.8881 54.8152 91.5098 54.8152 91.5098C54.8152 91.5098 55.1187 91.0454 55.0784 90.7871C55.0413 90.5318 55.2147 90.1874 55.3014 89.9752C55.3881 89.7691 55.3912 89.6369 55.5646 89.5108C55.7225 89.397 55.9424 89.9075 55.8929 89.3785C56.1747 89.3139 56.8621 88.8403 56.8621 88.8403C56.8621 88.8403 57.0418 88.462 57.3886 88.2929C57.7323 88.1207 57.9925 87.8285 58.1225 87.7885C58.2526 87.7455 58.426 87.5333 58.5994 87.361C58.7759 87.1919 59.1661 86.8966 59.1259 86.5122C59.0887 86.1309 59.1754 85.9186 59.3055 85.7925C59.4355 85.6634 59.4758 85.8787 59.6523 85.239C59.8319 84.5993 59.6585 84.5962 60.0115 84.2148C60.3584 83.8366 60.3181 83.4798 61.1418 82.9447C61.1418 82.9447 61.885 81.7576 62.0585 81.4593C62.235 81.1609 62.3217 81.2071 62.4084 80.9949C62.5013 80.7826 62.6747 80.3121 62.6778 80.0999C62.6809 79.8816 62.9441 79.1619 62.8172 78.9897C62.6902 78.8205 62.8667 78.2208 62.8667 78.2208C62.8667 78.2208 62.7459 77.8395 62.5725 77.6211C62.4053 77.4089 62.5756 77.3658 62.4084 77.0644C62.2381 76.763 61.9377 76.6739 62.2412 76.4647C62.5446 76.2525 62.7955 76.5539 62.6313 76.0403C62.461 75.5267 62.0337 75.3053 62.3805 75.2253C62.7243 75.1484 63.1547 75.2776 63.3715 75.2346C63.5882 75.1976 63.5418 75.1946 63.8019 75.0685C63.8143 75.0623 63.8205 75.0592 63.8298 75.0562C63.8422 75.0193 63.9351 74.8993 64.2881 74.561C65.1118 73.7553 65.8024 73.4662 65.8024 73.4662C66.2762 73.0387 66.109 72.8695 66.2793 72.8265C66.4589 72.7865 66.6292 72.6604 66.8429 72.6604C67.0597 72.6635 67.3167 72.5374 67.5335 72.4543C67.5335 72.4543 67.837 72.5835 68.0042 72.7588C68.1714 72.931 68.0909 72.7588 68.3913 72.7219C68.6947 72.6789 69.2119 72.5989 69.2119 72.5989C69.2119 72.5989 68.2643 72.3744 68.7443 72.0392C69.2212 71.7009 69.2181 72.0453 69.6485 71.7501C70.0821 71.4579 70.2555 71.6301 70.3887 71.2026C70.5218 70.7782 70.3515 70.4768 70.5218 70.7782C70.689 71.0796 70.7324 70.9535 71.0328 70.9966C71.3363 71.0458 71.7667 70.8367 71.9835 70.8828C72.1941 70.9289 72.417 70.6737 72.4975 70.8028C72.5842 70.932 72.801 70.6798 72.9311 70.852C73.0549 71.0212 73.2717 71.1104 73.5721 70.9443C73.8756 70.7752 74.0521 70.4799 74.1791 70.6521C74.306 70.8244 74.563 70.6983 74.6467 70.7844C74.7365 70.8705 75.0771 70.7875 75.17 70.4922C75.2567 70.1908 75.4146 69.874 75.5633 69.7664C76.0835 69.3881 75.5602 69.9786 76.3437 69.2651C77.1271 68.5424 77.2139 68.4993 77.2169 68.2471C77.22 67.9919 77.0528 67.4321 77.3129 67.18C77.5731 66.9247 77.9633 66.7156 78.0531 66.3742C78.146 66.0328 78.1862 66.0789 78.7096 65.3562C79.2329 64.6366 78.9728 64.5904 79.236 64.3844C79.4992 64.1722 79.4868 65.3285 79.5859 63.8708C79.6881 62.4222 79.8151 62.5483 79.7346 62.207C79.6479 61.8594 79.6076 61.8594 79.6943 61.6503C79.7841 61.4381 79.6138 61.2228 80.0009 61.0998C80.3911 60.9706 80.5181 60.8015 80.5645 60.6723C80.611 60.5462 80.8308 60.0788 80.8339 59.9096C80.837 59.7343 81.1002 59.0946 80.9299 58.7994C80.7627 58.4949 80.8897 58.1474 80.9392 58.0244C81.2055 57.3478 81.2458 57.3877 81.2086 57.0464C81.1684 56.705 80.8277 56.2283 80.8773 55.8469C80.9206 55.4625 81.187 54.8659 81.1033 54.6106C81.0228 54.3523 81.2396 54.1862 81.156 53.7556C81.0755 53.3281 81.1622 53.0298 81.1219 52.8576C81.0817 52.6884 81.2086 52.8176 81.0848 52.3009C80.9609 51.7904 80.4902 51.6551 80.9237 51.529C81.3542 51.406 80.837 51.529 81.3542 51.406C81.8713 51.286 82.1717 51.4152 81.6979 51.2399C81.2272 51.0646 81.0135 50.9724 81.0135 50.9724C81.0135 50.9724 80.9299 50.8032 81.4037 50.8094C81.8775 50.8155 81.7041 50.6833 82.0478 50.7724C82.3916 50.8647 82.0014 51.1138 82.3916 50.8647C82.7787 50.6095 83.1255 50.5295 83.175 50.185C83.2215 49.8437 83.5219 49.5054 83.6148 49.3793C83.7015 49.2532 83.8347 48.9979 83.8347 48.9979C83.8347 48.9979 83.878 48.6934 83.9245 48.5674C83.9647 48.4413 83.9709 48.0168 84.101 47.9707C84.231 47.9277 84.3146 48.0169 84.6677 47.5463C85.0176 47.0819 86.2749 46.0701 86.6248 45.7318C86.9747 45.3904 87.1017 45.5626 87.3216 45.1782C87.5414 44.7999 87.5817 44.7999 87.8418 44.4186C88.105 44.0341 88.2351 44.0341 88.3249 43.865C88.4178 43.6989 88.4581 43.3975 88.5912 43.1884C88.7244 42.9731 88.9412 42.6379 88.9009 42.4226C88.8606 42.2073 88.9504 41.7399 88.9102 41.6138C88.8699 41.4815 88.8699 41.3954 88.8297 41.0971C88.7925 40.7988 88.6222 40.4113 88.7987 40.196C88.9597 40.0238 89.0464 39.7716 88.9659 39.4241Z" fill="#0094CC"/>
  <path d="M37.8905 3.15803C38.1444 3.16111 38.2776 2.912 37.8967 2.56447C37.7326 2.41685 37.6335 3.15496 37.8905 3.15803Z" fill="#0094CC"/>
  <path d="M37.9524 6.7993C38.2837 6.80238 38.1816 6.7747 38.6182 6.75625C39.0517 6.73472 39.1508 6.9623 39.2128 6.33184C39.2685 5.69522 39.1446 5.18777 38.6863 5.4338C38.3519 5.61218 38.2187 6.06735 38.0608 6.31953C37.9029 6.57172 37.6211 6.79623 37.9524 6.7993Z" fill="#0094CC"/>
  <path d="M90.9659 37.4241C90.9102 37.2026 90.9288 37.0027 90.904 36.8274C90.9473 36.9166 90.9752 36.9474 90.8854 36.7628C90.873 36.6921 90.8452 36.6306 90.7987 36.566C90.7956 36.566 90.7925 36.566 90.7925 36.5629C90.743 36.4584 90.6748 36.3169 90.5881 36.1354C89.8294 34.5916 89.9626 34.3363 89.6189 34.3763C89.2689 34.4163 88.9283 34.4501 88.6279 34.4101C88.3275 34.364 88.4111 34.1918 88.1107 34.1887C87.8104 34.1856 87.2096 34.1795 87.2096 34.1795C87.2096 34.1795 87.1229 34.3486 86.7822 34.0472C86.4385 33.7427 86.2713 33.6105 86.1877 33.3091C86.101 33.0108 86.0205 32.4972 85.7232 32.3219C85.4228 32.1466 85.079 32.0605 84.9521 32.0143C84.8251 31.9682 84.6981 31.7099 84.3947 31.5776C84.0974 31.4515 83.7598 30.9748 83.6298 30.9349C83.4997 30.8918 83.2024 30.6273 82.9888 30.5012C82.7751 30.369 82.3044 30.1045 82.1774 30.0184C82.0505 29.9323 81.3568 30.0953 81.2732 29.923C81.1896 29.7539 81.0595 29.7508 80.8025 29.6647C80.5454 29.5755 80.2915 29.4033 79.9013 29.5294C79.5142 29.6524 79.4709 29.4802 79.0776 29.7324C78.6905 29.9845 78.6905 29.7723 78.3034 29.8923C77.9101 30.0184 78.003 29.8062 77.6128 29.76C77.2288 29.7108 77.1019 29.2403 76.6714 29.3202C76.2441 29.4002 76.2007 29.2741 76.0273 29.228C75.857 29.1849 75.9468 28.8866 75.4699 28.7544C74.9992 28.6221 75.1324 28.3238 74.7422 28.619C74.352 28.9143 74.8289 28.619 74.352 28.9143C73.8751 29.2065 73.4044 29.2464 73.4044 29.2464C72.9739 29.1972 73.2774 28.9051 72.9739 29.1972C72.6705 29.4925 73.0978 29.6278 72.6674 29.6647C72.2369 29.7047 72.1502 29.5294 72.4134 29.108C72.6767 28.6836 72.6983 28.6898 72.6797 28.5114C72.5992 27.7825 72.5125 27.8686 72.2152 27.5672C71.9149 27.2659 71.7848 27.3919 71.5711 27.3058C71.3605 27.2166 70.9704 27.2136 70.8434 27.0413C70.7164 26.866 70.5461 26.9491 70.416 26.7799C70.2891 26.6077 69.9484 26.5185 69.7286 26.6016C69.518 26.6815 69.1742 26.3371 69.0008 26.3801C68.8305 26.4201 68.6633 25.9865 68.4434 26.0726C68.2298 26.1525 68.2359 25.6881 67.9758 25.7681C67.7188 25.8511 67.8086 25.3837 67.5485 25.4237C67.2914 25.4606 67.2481 25.3345 67.0344 25.5436C66.8114 25.7558 66.9044 25.4144 66.6876 25.4975C66.4708 25.5836 66.2169 25.2791 65.997 25.5344C65.7833 25.7896 65.7864 25.4452 65.5666 25.8727C65.3467 26.2971 65.3188 26.3586 65.0432 26.7215C64.6499 27.232 64.6499 27.0167 64.2164 27.3919C63.7859 27.7733 63.9594 27.4381 63.7859 27.7733C63.6094 28.1147 63.6497 27.9455 63.3927 28.1547C63.1356 28.3669 63.179 28.0685 63.1356 28.3669C63.083 28.6652 63.083 28.6652 63.083 28.6652C63.083 28.6652 63.1821 27.8102 62.7919 27.9363C62.4017 28.0593 61.9248 28.1393 61.9248 28.1393C61.9248 28.1393 61.5006 27.7056 61.3302 27.7056C61.1568 27.7026 61.1568 27.6318 60.9029 27.4042C60.4755 27.0106 61.5904 27.4934 61.8071 27.4535C62.0239 27.4165 61.7638 27.4535 62.3645 27.4196C62.9715 27.3766 63.0954 27.4289 63.4019 27.3827C63.7023 27.3458 64.3929 26.9706 64.3929 26.9706C64.3929 26.9706 64.523 26.8445 64.5725 26.5862C64.6159 26.3309 64.6159 26.2879 64.7057 26.0326C64.7955 25.7773 64.7986 25.519 64.8419 25.3068C64.8884 25.0946 65.1051 24.7963 64.7181 24.7932C64.3341 24.7901 63.82 24.8701 63.6032 24.827C63.3834 24.7809 63.3029 24.6517 62.9994 24.7778C62.6959 24.9039 62.699 24.7747 62.0951 24.6425C61.4944 24.5072 61.8443 24.1258 61.324 24.5472C60.8007 24.9685 60.5437 25.0116 60.5437 25.1776C60.5406 25.3529 60.7202 25.1376 60.7542 25.6512C60.7914 26.1679 60.7852 26.5923 60.6149 26.5493C60.4446 26.5062 60.234 26.2448 60.2743 26.1618C60.3176 26.0757 60.0358 25.8942 59.977 25.7343C59.7292 25.0485 59.5094 25.0915 59.6859 24.8332C59.8655 24.5748 59.8159 24.621 60.0389 24.3226C60.2557 24.0274 59.8221 24.1504 60.4291 23.9013C61.036 23.6522 61.036 23.6922 61.3364 23.4861C61.6399 23.2708 61.77 23.2739 61.9031 23.0217C62.0301 22.7665 61.8195 22.6773 62.0363 22.379C62.2562 22.0806 62.3769 22.9818 62.2128 21.9115C62.2128 21.9115 62.1354 21.3948 62.1787 21.2687C62.219 21.1426 62.0982 20.8843 61.9682 20.8382C61.8381 20.7951 61.4541 20.4507 61.3271 20.4507C61.2002 20.4507 60.9462 20.1031 60.7728 20.1431C60.5963 20.1831 60.6459 19.7987 60.6025 19.6295C60.5622 19.4604 60.6521 19.202 60.6551 18.9898C60.6582 18.7776 60.7914 18.5623 60.4879 18.2609C60.1906 17.9596 60.3641 17.7473 60.1968 17.449C60.0265 17.1446 60.3703 17.2799 60.0296 16.7171C59.6952 16.1635 59.2616 16.2435 59.2616 16.2435C59.2616 16.2435 59.1873 16.1235 59.0851 15.9759C58.9241 15.7545 58.7104 15.4592 58.5803 15.3854C58.3698 15.2532 57.6885 14.6042 57.4284 14.512C57.1713 14.4259 56.9577 14.2905 56.6542 14.1644C56.3569 14.0353 56.3197 13.6939 55.9326 13.7708C55.5424 13.8508 55.8057 13.4263 55.4557 13.4233C55.1151 13.4202 55.2885 13.1711 55.0315 13.208C54.7745 13.2449 54.8612 12.9066 54.601 12.9466C54.5701 12.9527 54.5329 12.9527 54.4896 12.9527C54.2449 12.9343 53.9291 12.7866 53.7433 12.8974C53.5265 13.0204 53.5729 12.8943 53.2261 13.0173C52.8793 13.1465 52.7089 12.6729 52.4519 12.8359C52.1949 13.005 52.5386 12.7559 51.9781 12.7497C51.4176 12.7436 51.334 12.6144 51.0336 12.7405C50.727 12.8666 50.8106 13.0757 50.6403 13.1219C50.47 13.1619 50.6032 12.6944 50.0829 12.9435C49.5627 13.1926 49.6525 13.0265 49.3892 13.1526C49.253 13.2234 49.1942 13.1711 49.1415 13.0942C49.0951 13.0296 49.0517 12.9404 48.9619 12.8881C48.4509 12.5837 48.4107 12.4145 48.2001 12.1131C47.9864 11.8117 47.0481 11.2028 47.0048 11.2428C46.9552 11.2889 46.9583 11.0706 46.6579 11.1167C46.3576 11.1536 45.9302 11.3443 45.8868 11.0613C45.8032 10.5477 45.8466 10.723 45.8032 10.3786C45.7661 10.0372 45.5524 9.95109 45.4285 9.73581C45.3016 9.52052 45.3852 9.30832 45.0445 9.22221C44.7008 9.12994 44.6141 9.08381 44.4871 8.86853C44.3602 8.65632 44.1496 8.56714 43.8895 8.48102C43.7129 8.41952 43.5581 8.30265 43.4188 8.23191C43.3568 8.20116 43.298 8.17963 43.2453 8.17963C43.0719 8.17656 43.1648 7.92129 42.9078 7.78597C42.6508 7.6568 42.5672 7.35541 42.1832 7.35234C41.7961 7.34926 41.5576 7.20779 41.3223 7.34311C40.5852 7.76137 40.3251 7.80443 40.4583 7.54609C40.5914 7.29083 40.5481 7.29083 40.8051 6.99558C41.0683 6.70034 41.2882 6.31591 41.2882 6.31591C40.8175 5.84229 40.9104 5.63009 40.6503 5.62701C40.3932 5.62393 40.3963 5.45478 40.0495 5.5778C39.7027 5.70697 39.6624 5.61778 39.5788 5.39943C39.4921 5.19337 39.6686 4.97809 39.5386 4.93196C39.4116 4.89198 39.1515 5.14109 38.8882 5.31024C38.6281 5.47939 38.3277 5.43326 38.2844 5.30409C38.2441 5.18107 38.2503 4.75051 38.2503 4.75051C38.2503 4.75051 37.6 5.12879 37.5164 4.83047C37.4359 4.52908 37.439 4.39991 37.5721 4.23076C37.7022 4.06161 36.8351 4.52292 37.7022 4.06161C38.0614 3.87093 38.2844 3.71408 38.4392 3.61259C38.0088 3.57261 37.4111 3.4865 37.3585 3.58799C37.2717 3.75714 36.6679 3.79712 36.4542 3.74791C36.2405 3.70486 36.3241 3.57569 35.8101 3.70178C35.2929 3.82172 35.4292 3.3112 34.7727 3.94474C34.1224 4.58136 34.1224 4.58136 34.1224 4.58136C34.1224 4.58136 33.3482 4.40606 33.0881 4.48602C32.831 4.56906 32.7041 4.35378 32.2334 4.26459C31.7596 4.17232 32.063 4.00625 31.676 3.87093C31.2889 3.74176 31.5118 3.35733 31.1185 3.5234C30.7284 3.68948 30.8182 3.69255 30.3413 3.6864C29.8706 3.68025 30.6881 3.3481 29.6104 3.67718C28.5328 4.00933 28.7867 4.35685 28.2324 4.00625C27.6781 3.65872 28.0218 3.70486 27.6781 3.65872C27.5821 3.64335 27.5387 3.66795 27.5201 3.69563C27.514 3.6864 27.5109 3.67103 27.5078 3.65565C27.3808 3.3112 27.0402 2.92677 27.0402 2.92677C27.0402 2.92677 27.1764 2.37011 26.7893 2.36704C26.4022 2.36396 25.8417 2.18559 25.5413 2.18251C25.241 2.17943 25.114 1.96108 24.9034 1.9211C24.6835 1.87804 24.857 1.66276 24.6897 1.40442C24.5225 1.14608 24.8662 0.721673 24.442 0.675541C24.0177 0.607881 23.9806 0.18347 23.674 0.604806C23.3674 1.02922 23.1073 1.37059 23.064 1.62585C23.0144 1.88419 23.5347 1.71504 23.0144 2.0964C22.4942 2.47468 22.1969 2.34551 21.7169 2.54849C21.2431 2.75762 21.1595 2.80067 21.0666 3.05594C20.9768 3.31735 20.9768 3.31735 21.017 3.65565C21.0542 4.0001 21.785 4.04931 21.7819 4.55983C21.7757 5.07343 21.9491 4.73206 21.8996 5.45786C21.8469 6.18367 22.3238 6.06065 21.8438 6.43893C21.3669 6.82028 21.2431 6.56195 20.986 6.47583C20.7259 6.38665 20.2645 5.65776 20.2243 5.3533C20.1871 5.05498 19.7102 5.26718 20.3636 4.46142C21.017 3.65565 20.599 2.36704 20.5587 2.24094C20.5184 2.11793 20.2335 2.18559 20.2614 1.88112C20.2614 1.86881 20.2583 1.86574 20.2614 1.85344C20.311 1.51206 20.2212 1.42595 20.568 1.4321C20.9117 1.43518 21.2957 1.52436 21.4722 1.35521C21.6457 1.18299 22.0389 0.890822 21.9058 0.715522C21.7819 0.543297 22.0389 0.890823 22.0389 0.890823C22.0389 0.890823 22.2093 0.97386 22.3393 0.936954C22.4694 0.893898 22.3827 0.80471 22.3424 0.589429C22.3022 0.377223 22.3889 0.0789046 22.0018 0.0358484C21.6178 -0.0102833 21.6209 -0.0102833 21.144 0.026622C20.6671 0.0666028 20.5835 0.0604519 20.1964 0.269582C19.8031 0.481788 19.5461 0.730899 19.4532 0.943105C19.3665 1.15531 19.4098 1.2445 18.9329 1.49669C18.4591 1.7458 18.5892 1.66276 18.199 1.958C17.8088 2.25325 18.2423 2.21634 17.8088 2.25325C17.3784 2.29323 17.9358 2.38241 17.3784 2.29323C16.8209 2.20096 16.9077 1.90264 16.5206 2.06872C16.1335 2.23479 16.9138 1.39212 16.1335 2.23479C15.3469 3.08054 15.9601 2.70226 15.2664 2.73917C14.5758 2.77607 14.3621 2.72994 14.102 2.89909C13.8388 3.06516 13.7521 3.36348 13.492 3.61567C13.2318 3.86785 13.4455 3.4865 13.3588 4.12619C13.2628 4.76896 13.3836 5.41173 13.1265 5.66392C12.8633 5.91918 12.9098 5.91918 12.6497 5.9161C12.3895 5.91303 12.3524 5.61471 12.0458 6.0791C11.7392 6.54657 11.5596 7.01404 11.2995 7.18319C11.0424 7.34926 11.0858 7.22317 10.869 7.56454C10.6492 7.90284 10.7792 7.85978 10.6492 8.11812C10.612 8.18578 10.5717 8.20116 10.5222 8.19501C10.3921 8.66555 10.0391 9.05613 9.44763 9.01C9.59008 9.43441 9.21538 9.71428 8.87474 9.94186C9.07293 10.1264 9.22777 10.2648 9.22777 10.2648C9.22777 10.2648 9.18132 10.3078 9.18132 10.4524C9.17822 10.6031 9.22467 10.52 9.30828 10.7538C9.39499 10.9906 9.65202 11.0336 9.62724 11.1843C9.60247 11.332 9.84092 11.3566 9.72944 11.6118C9.62105 11.8671 9.68298 12.0147 9.68298 12.1685C9.67989 12.3192 9.7635 12.7651 9.7604 12.9373C9.75731 13.1126 9.51886 13.2787 9.53744 13.5371C9.55602 13.7892 9.62105 13.6416 9.72634 13.9215C9.83163 14.2014 9.97717 14.3274 9.9555 14.5181C9.93382 14.715 9.97098 14.9056 9.92763 15.1394C9.88118 15.3762 9.92453 15.5515 9.8564 15.7791C9.78827 16.0159 9.91214 16.551 9.99575 16.6617C10.0825 16.7694 10.2342 16.5541 10.036 16.8985C9.84092 17.2337 9.73253 17.2583 9.59937 17.4244C9.46931 17.5936 9.49099 17.6182 9.36093 17.8304C9.22777 18.0426 9.22777 18.018 9.14106 18.2148C9.05125 18.4024 9.07293 18.4239 8.87784 18.5347C8.68584 18.6361 8.83758 18.4239 8.68584 18.6361C8.5341 18.8484 8.86235 18.6392 8.5341 18.8484C8.20894 19.0575 8.03862 18.9099 7.88688 18.9867C7.73824 19.0729 7.7785 19.0083 7.60818 19.0729C7.43786 19.1313 7.09102 19.2605 7.08793 19.5157C7.08483 19.771 7.0167 20.0078 6.97644 20.1985C6.92999 20.3953 6.94857 20.3276 6.84638 20.3461C6.7349 20.3676 6.79683 20.5798 6.75348 20.6413C6.71942 20.6936 6.64509 20.8105 6.60174 20.9427C6.58935 20.9766 6.58006 21.0104 6.57697 21.0504C6.55529 21.2195 6.72251 21.3733 6.70083 21.4963C6.67916 21.6255 6.50264 21.6224 6.354 21.6224C6.20536 21.6193 6.0722 21.5363 5.92356 21.5978C5.77182 21.6593 5.40331 21.8315 5.33827 21.893C5.27324 21.9546 5.27324 21.9976 5.16176 22.0622C5.05647 22.1237 4.73132 22.0591 4.64461 22.1206C4.561 22.1852 4.57958 22.0314 4.40926 22.1852C4.23584 22.3328 4.19248 22.2252 4.19248 22.4405C4.18939 22.6496 4.05932 22.7572 4.21106 22.9264C4.35971 23.1017 4.31635 23.1448 4.35661 23.2739C4.39687 23.4 4.4619 23.2955 4.44022 23.5077C4.41235 23.7229 4.52383 23.4677 4.22345 23.7414C3.91997 24.0182 3.74656 24.0797 3.69701 24.2304C3.65675 24.378 3.69701 24.3565 3.71868 24.5502C3.74036 24.744 3.75585 24.744 3.73726 24.9377C3.71249 25.1346 3.72797 25.6635 3.64127 25.7681C3.54527 25.8634 3.35017 26.0541 3.22011 26.2879C3.08695 26.5247 3.08695 26.374 3.08695 26.6292C3.08386 26.8845 3.27895 26.8445 3.14889 27.0567C3.01882 27.272 2.89186 27.0352 3.01882 27.272C3.14269 27.5088 3.55146 27.5549 3.4214 27.6595C3.29443 27.761 3.26966 27.7425 3.2263 27.8717C3.18295 28.0009 3.16127 28.0409 3.35017 28.1977C3.54217 28.3453 3.82088 28.3269 3.81778 28.5637C3.81468 28.8036 4.01287 28.9297 4.01287 28.9297C4.01287 28.9297 4.31016 29.0773 4.39687 28.9081C4.48667 28.739 4.59506 28.6098 4.68177 28.4191C4.76848 28.2285 4.96357 27.7241 5.01312 27.8256C5.13699 28.0778 4.87376 28.8466 4.87376 28.8466C4.87376 28.8466 5.08434 28.8497 4.9326 29.1696C4.77777 29.4894 4.23893 29.8677 4.23893 29.8677C4.23893 29.8677 4.22965 29.8708 4.21416 29.8769C4.15223 29.9169 3.96023 30.0276 3.87042 30.1014C3.76204 30.1845 3.57004 30.1814 3.37495 30.3505C3.17676 30.5197 3.39353 30.2644 3.04669 30.5566C2.70296 30.8518 2.55122 30.9349 2.46141 31.0856C2.3778 31.2363 2.26322 31.7037 2.21987 31.8544C2.17032 32.002 2.03716 32.1927 2.01548 32.3834C1.99381 32.5771 1.9969 32.3188 2.01239 32.7278C2.02787 33.14 2.02787 33.0262 2.15793 33.306C2.2849 33.5859 2.20129 33.5828 2.41186 33.7366C2.62554 33.8873 2.69367 33.6966 2.77418 34.0195C2.85779 34.3394 2.94141 34.2563 2.90115 34.4901C2.8547 34.7238 3.02811 34.6654 2.78967 34.8315C2.54812 34.9975 2.59457 34.7884 2.54812 34.9975C2.50477 35.2128 2.58838 35.1298 2.54502 35.3204C2.50167 35.5111 2.74012 35.4927 2.99095 35.7725C3.24798 36.0524 3.67843 36.1416 3.74036 36.1416C3.80849 36.1416 3.84875 36.1231 3.95713 36.1662C4.06552 36.2093 4.38758 36.2123 4.3659 36.323C4.33803 36.4307 4.59816 36.6429 4.70035 36.7751C4.80873 36.9043 5.10912 37.0365 5.10602 37.2057C5.10292 37.3748 5.10292 37.4825 5.16486 37.6117C5.22679 37.7408 5.44047 38.0422 5.44047 38.1037C5.44047 38.1714 5.75943 38.3252 5.75633 38.5343C5.75324 38.7496 6.11555 39.3308 6.15891 39.4385C6.19916 39.543 6.15891 39.543 6.28278 39.7153C6.41284 39.8875 6.47787 39.9951 6.5398 40.1458C6.60174 40.2965 6.66677 40.3611 6.75658 40.4657C6.83709 40.5733 6.9238 40.6194 6.98883 40.7056C7.05386 40.7917 7.20251 40.7947 7.28612 40.9424C7.36973 41.0931 7.56482 41.0777 7.58031 41.3114C7.59889 41.5482 7.73205 41.7389 7.76921 42.0157C7.80946 42.2925 7.89617 42.3386 8.04172 42.8553C8.18726 43.3658 8.39475 43.7533 8.48145 43.9901C8.56507 44.23 8.56816 44.0978 8.65177 44.2915C8.73848 44.4853 9.03267 45.002 9.18132 45.1957C9.32996 45.3895 9.54673 45.3679 9.60866 45.6263C9.6675 45.8846 9.72944 46.1183 9.81305 46.3305C9.89976 46.5458 10.1134 46.7826 10.1754 46.8872C10.2404 46.9979 10.3271 46.9303 10.4912 47.3208C10.6585 47.7083 10.4696 47.6837 10.7668 48.0282C11.0641 48.3726 11.2778 48.3357 11.2995 48.6095C11.3181 48.8862 11.4667 49.1046 11.5039 49.2768C11.5441 49.449 11.699 49.3629 11.6308 49.6859C11.5658 50.0057 11.4574 50.0457 11.4326 50.2794C11.411 50.5162 11.3645 50.4516 11.4512 50.6423C11.5286 50.8391 11.5782 50.8391 11.7702 51.0329L12.5165 51.6388C12.5165 51.6388 12.4267 51.9832 12.6373 52.2416C12.8509 52.4999 12.9346 52.2446 13.0213 52.503C13.1018 52.7582 13.6654 52.6783 13.7056 52.8105C13.749 52.9366 14.0463 53.1088 14.0463 53.2811C14.0432 53.4533 14.2538 53.5917 14.3869 53.6716C14.901 53.973 15.1611 53.85 15.3314 54.0622C15.5017 54.2836 16.4834 55.0587 16.7404 55.1048C16.9944 55.1479 17.1244 55.3662 17.3815 55.4492C17.6354 55.5384 17.8584 55.2862 18.0658 55.5046C18.2795 55.7168 18.5768 55.8491 18.7069 55.9782C18.8338 56.1043 19.0103 56.0674 19.1807 56.1566C19.351 56.2427 19.5646 56.1997 19.6947 56.2888C19.8248 56.3719 20.1654 56.4211 20.4627 56.8516C20.76 57.2853 20.9675 57.5959 21.0108 57.7158C21.2617 58.3555 21.6549 58.5247 21.7757 58.617C22.33 59.0506 21.7788 58.3186 22.33 59.0506C22.4198 59.1644 22.488 59.2566 22.553 59.3305C22.9029 59.7456 22.9587 59.6749 22.8843 59.7825C22.7945 59.9117 22.7047 60.25 22.7852 60.5514C22.872 60.8497 22.9091 61.3203 22.9494 61.5356C22.9927 61.7508 23.0299 61.9661 23.0732 62.1322C23.1166 62.3075 23.1166 62.3475 23.067 62.6888C23.0175 63.0302 22.9772 63.0733 22.9741 63.3747C22.971 63.6699 22.9277 63.6238 23.0547 63.9282C23.1754 64.2296 23.1816 63.7991 23.3055 64.4418C23.4263 65.0846 23.4696 65.1707 23.3396 65.469C23.2064 65.7643 23.0732 65.9611 23.033 66.1456C22.8503 66.9576 22.8131 66.7054 22.8069 67.2128C22.8007 67.7264 23.1104 66.7884 22.7543 67.9417C22.3982 69.0889 22.4013 68.7475 22.3982 69.0888C22.4725 70.0299 22.4663 70.1345 22.4694 70.2852C22.5034 71.1832 22.3114 73.4037 22.0916 73.7881C21.8717 74.1695 21.7014 74.2525 21.6983 74.637C21.6952 75.0214 21.9925 75.1075 21.816 75.535C21.6395 75.9594 21.7695 75.8794 21.6364 76.39C21.5032 76.8974 21.6364 76.3038 21.5032 76.8974C21.3638 77.494 21.4506 77.494 21.3143 77.9215C21.1811 78.349 21.4072 77.5832 21.1811 78.349C20.9613 79.1117 21.0511 78.5612 20.9148 79.3301C20.7786 80.0989 21.082 79.5884 20.7786 80.0989C20.7073 80.2189 20.6733 80.2373 20.6578 80.2189C20.6547 80.2312 20.6547 80.2466 20.6485 80.265C20.4689 81.2061 20.5092 81.2061 20.633 81.6336C20.7569 82.0642 21.017 81.8519 20.8405 82.3625C20.6609 82.873 20.5804 82.9837 20.4875 83.2144C20.2212 83.851 20.2212 83.851 20.2212 83.851C20.2521 85.0473 19.9455 85.5117 20.0292 85.9023C20.1097 86.2867 20.0199 86.7112 20.0168 87.0956C20.0137 87.48 20.184 87.5261 20.1778 87.9106C20.1747 88.295 20.3017 88.3811 20.215 88.7194C20.1252 89.0639 20.0818 89.0608 19.9517 89.4452C19.8155 89.8297 19.7257 90.0449 19.5956 90.2541C19.4687 90.4663 19.7257 90.168 19.5925 90.6385C19.4625 91.109 19.289 91.149 19.0692 91.5704C18.8462 91.9948 18.809 91.7826 18.806 92.2131C18.8029 92.6375 19.0599 92.4715 18.967 93.025C18.8741 93.5786 18.7471 93.4095 18.5272 93.8739C18.3074 94.3475 18.0875 94.7258 17.9141 94.981C17.7407 95.2363 17.911 95.4054 17.7314 95.919C17.5518 96.4296 17.7252 96.4296 17.5022 96.7709C17.2855 97.1092 17.2018 96.8509 17.0656 97.2323C16.9355 97.6167 16.8736 97.6382 16.632 97.915C15.8486 98.8038 16.0622 98.8069 16.0561 99.4035C16.0499 100.003 16.0127 99.5758 16.1335 100.262C16.2542 100.944 15.9136 100.471 16.2542 100.944C16.5918 101.418 16.5484 101.676 16.5887 101.842C16.6289 102.015 16.6661 102.743 16.6661 102.743C16.6661 102.743 16.7869 103.042 16.7466 103.168C16.7002 103.297 16.7869 103.211 16.5268 103.592C16.2635 103.98 16.3533 103.635 16.2635 103.98C16.1768 104.318 16.1768 104.318 16.1768 104.318C16.1768 104.318 16.3007 104.792 16.0808 105.213C15.861 105.637 15.9477 105.554 15.6844 105.936C15.4243 106.32 15.4274 105.976 15.4243 106.32C15.4212 106.662 15.4181 106.917 15.5451 107.132C15.669 107.347 15.7557 107.434 15.9291 107.606C16.0963 107.778 16.2326 107.796 16.3998 107.867C16.9138 108.086 16.9541 108.086 17.174 107.962C17.3876 107.833 17.3876 107.661 17.7345 107.836C18.0782 108.015 18.3322 107.975 18.1185 108.267C17.8986 108.562 17.4991 108.292 17.6385 108.648C17.8026 109.076 17.9822 108.864 17.8924 109.291C17.7995 109.722 17.976 109.463 17.7995 109.722C17.6261 109.974 17.7562 110.02 17.7933 110.232C17.8367 110.444 17.4496 110.441 17.4465 110.654C17.4434 110.866 17.4434 110.952 17.3938 111.253C17.3474 111.548 17.4775 111.339 17.3474 111.548C17.2173 111.764 17.3164 110.78 17.2173 111.764C17.1244 112.742 17.208 112.57 17.1244 112.742C17.0346 112.911 17.0315 113.212 17.0284 113.381C17.0253 113.554 16.9882 113.424 17.0253 113.723C17.0687 114.024 17.2762 114.061 17.4093 114.196C17.8336 114.627 17.6168 114.839 17.4867 115.008C17.4867 115.008 16.8953 114.879 16.8364 115.307C16.694 116.285 16.5268 116.282 16.694 116.285C16.8612 116.288 17.3784 117.02 17.1585 117.017C16.9479 117.014 16.9077 116.457 16.5608 116.792C16.214 117.133 16.1706 117.217 16.1675 117.389C16.1644 117.558 16.3781 117.733 16.3317 118.028C16.2883 118.33 15.9384 118.708 15.9384 118.708C15.4553 119.391 15.4553 119.391 15.4553 119.391C15.4553 119.391 14.9815 119.769 15.0682 119.514C15.158 119.259 15.2788 118.97 15.0341 118.911C14.4303 118.779 14.133 118.481 14.4334 118.397C14.4334 118.397 14.0122 117.795 13.8388 117.921C13.2287 118.342 13.0553 118.508 13.0956 118.677C13.1389 118.846 13.3557 118.81 13.2628 119.065C13.1792 119.323 13.1792 119.234 12.8324 119.446C12.4855 119.652 11.6711 119.563 11.8817 119.904C12.0922 120.249 12.6497 120.55 12.7797 120.47C12.9098 120.384 13.4362 119.834 13.4362 119.834C13.4362 119.834 13.9069 119.84 13.8605 120.055C13.8171 120.264 13.6871 120.31 13.9007 120.44C14.1144 120.566 14.8545 119.72 14.8112 120.021C14.7616 120.323 14.9381 120.021 14.8483 120.492C14.7554 120.962 14.8483 120.492 14.7554 120.962C14.6625 121.433 14.0649 121.082 13.9751 121.424C13.8852 121.765 13.9317 121.722 14.1856 122.066C14.4396 122.408 15.0465 121.907 15.0465 122.162C15.0434 122.414 14.6099 122.838 15.0001 122.629C15.3872 122.42 15.3035 122.205 15.5606 122.466C15.8145 122.728 16.437 122.971 16.2419 123.072C15.6783 123.364 15.1208 123.275 15.1208 123.275C15.1208 123.275 14.6966 123.014 14.5634 123.352C14.4303 123.693 14.3838 123.819 14.5139 123.952L13.7738 124.841C13.7738 124.841 14.3745 124.89 14.4148 125.231C14.4519 125.573 15.1797 125.923 14.9196 126.261C14.6625 126.6 14.5232 127.196 14.5232 127.196C14.5232 127.196 14.7802 127.286 14.6904 127.501C14.6006 127.713 14.4334 127.449 14.2569 127.793C14.0834 128.134 14.1237 128.393 14.2104 128.516C14.2909 128.648 14.9784 128.952 14.8886 129.125C14.8019 129.294 14.8669 129.365 14.5387 129.589C13.9317 130.013 13.8914 129.669 13.6313 129.924C13.3681 130.176 13.2876 129.964 13.6685 130.312C14.0525 130.656 14.2661 130.742 14.6532 130.745C15.0403 130.748 14.9598 130.238 15.2137 130.669C15.4677 131.096 15.7681 131.225 15.765 131.619C15.7619 132.003 15.6752 131.914 15.7123 132.255C15.7526 132.597 15.9632 132.729 16.0963 132.686C16.2264 132.649 16.4772 132.947 16.5732 132.52C16.663 132.092 16.6661 131.797 16.7497 131.88C16.8364 131.966 17.1368 131.883 17.2638 131.969C17.3938 132.059 17.6044 132.317 17.7376 132.234C17.8676 132.145 18.1278 131.766 18.0813 132.025C18.038 132.277 17.9884 132.575 17.9853 132.874C17.9822 133.175 17.5146 132.954 17.3815 133.212C17.2483 133.464 17.5518 133.295 17.5084 133.636C17.4589 133.981 17.8955 133.387 17.719 133.984C17.5363 134.577 18.2826 133.433 18.5365 133.864C18.7905 134.294 19.1342 134.208 19.3479 134.384C19.5616 134.559 19.9084 134.347 19.9486 134.734C19.9858 135.119 20.0725 135.245 20.1128 135.374C20.1561 135.5 20.6268 135.891 20.28 135.974C19.9332 136.054 19.639 135.58 19.3324 135.878C19.0258 136.174 18.9453 135.918 18.8555 136.346C18.7657 136.77 18.8555 136.469 18.936 136.856C19.0165 137.244 18.6294 137.37 19.1435 137.499C19.6576 137.631 20.2181 137.637 20.3884 137.727C20.5587 137.813 21.0418 137.351 21.0449 137.093C21.048 136.838 21.0511 136.58 20.9644 136.281C20.8839 135.983 21.3608 135.472 21.3608 135.472L21.7664 135.22L22.2278 134.931C22.2278 134.931 21.9275 134.67 22.4446 134.55C22.9618 134.424 23.2652 134.639 23.3055 134.639C23.355 134.639 23.355 134.639 23.355 134.639C23.355 134.639 23.8226 134.9 23.0856 135.153C22.3579 135.402 21.658 136.075 21.8686 136.207C22.0854 136.34 22.7729 136.346 22.9029 136.392C23.0299 136.438 23.5068 136.312 23.4572 136.521C23.417 136.736 23.1507 137.032 23.1507 137.032C23.1507 137.032 22.5994 136.598 22.5499 137.112C22.5034 137.625 22.5871 137.628 22.584 137.963C22.5809 138.311 23.355 138.4 23.3519 138.612C23.3489 138.825 23.8196 138.874 23.3922 138.997C22.9618 139.123 22.618 138.948 22.618 138.948C22.618 138.948 21.4165 138.723 21.2833 138.892C21.1533 139.058 20.856 139.015 20.5928 139.221C20.3326 139.437 20.1964 139.904 20.4968 139.821C20.8002 139.738 21.5682 140.221 21.6983 140.092C21.8284 139.963 22.3053 140.055 22.5158 140.015C22.7326 139.975 23.3334 139.938 23.3334 139.938C23.3334 139.938 23.3736 140.153 23.6307 140.368C23.8846 140.581 24.315 140.633 24.4451 140.547C24.5752 140.461 24.0177 140.328 24.8291 140.55C24.9096 140.571 24.9746 140.584 25.0397 140.599C25.6528 140.725 25.7117 140.528 25.9067 140.648C26.1173 140.777 26.7893 140.479 26.938 140.571C27.4954 140.916 27.6688 140.747 27.8825 140.882C28.0961 141.008 28.3098 140.756 28.5297 140.845C28.7403 140.931 29.2605 140.811 29.2605 140.811C29.2605 140.811 29.9046 140.645 29.7808 140.817C29.6507 140.99 30.3351 141.036 30.5518 140.913C30.7686 140.784 31.5025 140.452 31.5025 140.452L31.3291 140.233C31.3291 140.233 31.6388 139.769 31.2053 139.809C30.7779 139.843 30.3072 139.541 29.8768 139.578C29.4463 139.618 28.9323 139.397 28.9323 139.397C28.9323 139.397 28.635 138.969 28.3346 138.751C28.0373 138.536 27.9939 138.662 27.9103 138.363C27.8267 138.062 27.8732 137.548 27.6161 137.674C27.3529 137.797 27.1021 137.539 26.8853 137.453C26.6716 137.361 26.2938 136.589 26.1638 136.463C26.0399 136.33 25.9067 136.327 25.9997 135.946C26.0895 135.562 26.266 135.306 26.0523 135.26C25.8386 135.217 25.7984 134.62 25.4113 134.83C25.0242 135.039 24.9777 135.039 24.7641 135.036C24.7517 135.036 24.7486 135.033 24.7424 135.033C24.5473 134.999 24.4977 134.605 24.0797 134.473C23.6554 134.341 23.4758 134.294 23.4789 134.039C23.4789 133.925 23.4851 133.845 23.5037 133.775C23.5285 133.682 23.5811 133.618 23.705 133.572C23.9217 133.489 24.1757 133.535 24.5628 133.75C24.9468 133.965 25.2471 134.101 25.5475 134.061C25.851 134.021 26.0244 133.765 25.7674 133.593C25.5135 133.418 25.2193 132.735 25.0087 132.434C24.7981 132.129 24.5844 131.659 24.5442 131.53C24.5008 131.4 24.6371 130.804 24.5999 130.549C24.5597 130.29 24.3491 129.817 24.6061 129.866C24.8662 129.909 24.6959 129.568 25.1759 129.06C25.6528 128.553 25.786 128.254 26.1297 128.343C26.4704 128.433 26.8605 128.393 26.9008 128.267C26.9472 128.14 26.78 127.409 26.8729 127.239C26.9596 127.07 27.5759 125.797 27.7524 125.499C27.9258 125.2 28.2262 125.246 28.5328 125.037C28.8332 124.828 29.2667 124.831 29.7436 124.367C30.2205 123.903 30.7407 123.693 30.7841 123.481C30.8305 123.269 31.0071 123.057 30.9204 122.881C30.8367 122.709 30.9668 122.623 30.493 122.537C30.0223 122.445 30.3258 122.02 30.589 121.854C30.846 121.685 30.9761 121.814 30.8522 121.341C30.7284 120.87 30.7748 120.572 30.558 120.569C30.3444 120.566 30.174 120.44 29.9542 120.48C29.7436 120.516 29.3132 120.51 29.0933 120.47C28.8827 120.421 28.3656 120.375 28.2819 120.074C28.1983 119.772 27.8546 119.686 27.8205 119.216C27.7803 118.748 27.9568 118.361 28.1333 118.148C28.3067 117.939 28.4863 117.383 28.5297 117.217C28.573 117.041 28.5328 116.958 28.7093 116.832C28.8827 116.706 29.3999 116.411 29.3999 116.411C29.3999 116.411 29.2264 116.666 29.8706 116.328C30.5209 115.996 31.1309 115.359 31.2145 115.485C31.2982 115.62 31.5923 116.303 31.9051 115.411C32.2148 114.516 32.3077 113.834 32.3077 113.834L32.0507 113.403L32.3603 112.892C32.3603 112.892 32.5709 111.89 32.7567 111.831C33.4039 111.625 33.5773 111.324 33.5773 111.324C33.5773 111.324 32.8992 110.632 32.9394 110.46C32.9859 110.291 33.0726 110.121 33.2894 110.168C33.503 110.211 33.565 109.974 33.7632 110.214C34.2277 110.77 33.9644 111.112 34.2679 111.072C34.5683 111.032 34.5559 112.145 34.9151 110.909C35.2713 109.672 35.5778 109.377 35.1009 109.371C34.6302 109.365 34.4228 108.854 34.1131 109.193C33.8096 109.528 33.5897 109.958 33.5897 109.958C33.0757 109.823 32.7505 109.648 32.7381 109.479C32.701 109.005 32.4842 109.048 32.5276 108.747C32.5771 108.448 32.7072 108.153 32.7536 107.941C32.797 107.729 32.7567 107.64 32.8434 107.341C32.9363 107.046 32.3325 106.785 32.5492 106.486C32.7722 106.191 32.5523 106.231 33.2398 106.406C33.9273 106.585 34.5311 106.419 34.4444 106.72C34.3546 107.015 34.5219 107.406 34.9523 107.409C35.3827 107.412 35.6831 107.289 35.8968 107.335C36.1105 107.378 36.5038 107.341 36.6338 107.298C36.7577 107.258 37.1912 107.132 37.3244 106.963C37.4514 106.797 38.5321 106.677 37.8446 106.412C37.1572 106.148 37.0736 106.065 37.1603 105.85C37.247 105.641 37.6867 105.259 37.6867 105.259C37.9066 104.45 38.08 104.364 38.0831 104.106C38.0862 103.851 38.3866 103.897 38.1357 103.38C37.8818 102.863 37.5504 102.602 37.7548 102.522C38.6188 102.19 38.5321 102.402 38.9595 102.445C39.393 102.494 38.7891 102.488 39.393 102.494C39.9938 102.5 40.2508 102.461 40.2508 102.461C40.2508 102.461 40.4676 102.593 41.155 102.47C41.8487 102.353 44.131 101.778 44.3044 101.781C44.4778 101.784 44.9516 101.704 44.9516 101.704C44.9516 101.704 45.2954 101.449 45.3821 101.578C45.4657 101.71 45.7289 101.2 45.859 101.283C45.9859 101.369 46.3328 101.077 46.4659 100.947C46.596 100.821 46.596 100.692 46.7694 100.606C46.9428 100.523 47.1999 100.271 47.1999 100.271C47.5529 99.8464 47.7697 99.3389 47.7697 99.3389C47.7697 99.3389 47.9028 99.0375 48.1196 98.9145C48.3364 98.7884 48.3364 98.6623 48.3797 98.487C48.4231 98.321 48.2961 98.5731 48.3859 97.9765C48.4788 97.3768 48.5655 97.7182 48.4819 97.2046C48.3983 96.691 48.5779 96.6941 48.1877 96.5618C47.7975 96.4326 47.7604 96.2174 47.6768 96.0021C47.5931 95.7868 47.6737 96.3465 47.5931 95.7868C47.5126 95.2301 47.7759 95.101 47.7294 94.8888C47.6458 94.5013 47.8254 94.0369 47.652 93.9938C47.4817 93.9477 47.6179 93.351 47.2277 93.431C46.8406 93.514 45.8992 92.9912 45.6825 92.902C45.4688 92.819 45.3852 92.6898 45.2582 92.5114C45.1281 92.3423 45.0879 92.2131 45.1343 91.8656C45.1839 91.5273 45.4347 92.0009 45.3542 91.2782C45.2768 90.5493 45.6236 90.3371 45.5369 90.211C45.4533 90.0788 45.3232 89.9927 45.4564 89.6943C45.5896 89.396 45.3294 89.4391 45.5896 89.2269C45.8497 89.0147 45.9364 89.0147 45.8528 88.5872C45.7816 88.1966 45.8466 87.886 45.8559 87.8275C45.859 87.8214 45.859 87.8152 45.859 87.8152C45.859 87.8152 46.0665 88.5872 46.0169 89.0147C45.9736 89.4452 45.8868 89.4821 45.8838 89.7774C45.8807 90.0788 45.8807 90.9399 45.8249 91.0629C45.5617 91.6595 45.3883 91.7856 45.5152 91.9179C45.6422 92.0471 45.9395 92.6498 46.2368 92.5637C46.5403 92.4838 46.4195 92.3361 46.7137 92.4838C47.2246 92.7452 47.6179 92.4469 47.6551 92.7483C47.6984 93.0496 48.0391 93.2219 48.2961 93.3541C48.55 93.4833 48.9929 93.4648 49.1539 93.5325C49.5874 93.7109 49.5379 93.7078 49.7578 93.674C49.9683 93.6309 50.2285 93.717 50.4452 93.6371C50.662 93.5509 50.5753 93.3818 50.919 93.4679C51.2628 93.5571 51.5353 93.4833 51.6932 93.5632C52.2909 93.8708 53.2013 93.4925 53.2013 93.4925C53.2013 93.4925 53.5915 92.9851 53.7216 92.9451C53.8516 92.9051 53.9817 92.9482 54.2883 92.5207C54.5918 92.0993 54.8116 91.5458 54.9448 91.4596C55.0717 91.3797 55.2018 91.2905 55.4248 90.9091C55.6415 90.5247 55.8583 90.3156 56.0751 90.1034C56.295 89.8881 56.8152 89.5098 56.8152 89.5098C56.8152 89.5098 57.1187 89.0454 57.0784 88.7871C57.0413 88.5318 57.2147 88.1874 57.3014 87.9752C57.3881 87.7691 57.3912 87.6369 57.5646 87.5108C57.7225 87.397 57.9424 87.9075 57.8929 87.3785C58.1747 87.3139 58.8621 86.8403 58.8621 86.8403C58.8621 86.8403 59.0418 86.462 59.3886 86.2929C59.7323 86.1207 59.9925 85.8285 60.1225 85.7885C60.2526 85.7455 60.426 85.5333 60.5994 85.361C60.7759 85.1919 61.1661 84.8966 61.1259 84.5122C61.0887 84.1309 61.1754 83.9186 61.3055 83.7925C61.4355 83.6634 61.4758 83.8787 61.6523 83.239C61.8319 82.5993 61.6585 82.5962 62.0115 82.2148C62.3584 81.8366 62.3181 81.4798 63.1418 80.9447C63.1418 80.9447 63.885 79.7576 64.0585 79.4593C64.235 79.1609 64.3217 79.2071 64.4084 78.9949C64.5013 78.7826 64.6747 78.3121 64.6778 78.0999C64.6809 77.8816 64.9441 77.1619 64.8172 76.9897C64.6902 76.8205 64.8667 76.2208 64.8667 76.2208C64.8667 76.2208 64.7459 75.8395 64.5725 75.6211C64.4053 75.4089 64.5756 75.3658 64.4084 75.0644C64.2381 74.763 63.9377 74.6739 64.2412 74.4647C64.5446 74.2525 64.7955 74.5539 64.6313 74.0403C64.461 73.5267 64.0337 73.3053 64.3805 73.2253C64.7243 73.1484 65.1547 73.2776 65.3715 73.2346C65.5882 73.1976 65.5418 73.1946 65.8019 73.0685C65.8143 73.0623 65.8205 73.0592 65.8298 73.0562C65.8422 73.0193 65.9351 72.8993 66.2881 72.561C67.1118 71.7553 67.8024 71.4662 67.8024 71.4662C68.2762 71.0387 68.109 70.8695 68.2793 70.8265C68.4589 70.7865 68.6292 70.6604 68.8429 70.6604C69.0597 70.6635 69.3167 70.5374 69.5335 70.4543C69.5335 70.4543 69.837 70.5835 70.0042 70.7588C70.1714 70.931 70.0909 70.7588 70.3913 70.7219C70.6947 70.6789 71.2119 70.5989 71.2119 70.5989C71.2119 70.5989 70.2643 70.3744 70.7443 70.0392C71.2212 69.7009 71.2181 70.0453 71.6485 69.7501C72.0821 69.4579 72.2555 69.6301 72.3887 69.2026C72.5218 68.7782 72.3515 68.4768 72.5218 68.7782C72.689 69.0796 72.7324 68.9535 73.0328 68.9966C73.3363 69.0458 73.7667 68.8367 73.9835 68.8828C74.1941 68.9289 74.417 68.6737 74.4975 68.8028C74.5842 68.932 74.801 68.6798 74.9311 68.852C75.0549 69.0212 75.2717 69.1104 75.5721 68.9443C75.8756 68.7752 76.0521 68.4799 76.1791 68.6521C76.306 68.8244 76.563 68.6983 76.6467 68.7844C76.7365 68.8705 77.0771 68.7875 77.17 68.4922C77.2567 68.1908 77.4146 67.874 77.5633 67.7664C78.0835 67.3881 77.5602 67.9786 78.3437 67.2651C79.1271 66.5424 79.2139 66.4993 79.2169 66.2471C79.22 65.9919 79.0528 65.4321 79.3129 65.18C79.5731 64.9247 79.9633 64.7156 80.0531 64.3742C80.146 64.0328 80.1862 64.0789 80.7096 63.3562C81.2329 62.6366 80.9728 62.5904 81.236 62.3844C81.4992 62.1722 81.4868 63.3285 81.5859 61.8708C81.6881 60.4222 81.8151 60.5483 81.7346 60.207C81.6479 59.8594 81.6076 59.8594 81.6943 59.6503C81.7841 59.4381 81.6138 59.2228 82.0009 59.0998C82.3911 58.9706 82.5181 58.8015 82.5645 58.6723C82.611 58.5462 82.8308 58.0788 82.8339 57.9096C82.837 57.7343 83.1002 57.0946 82.9299 56.7994C82.7627 56.4949 82.8897 56.1474 82.9392 56.0244C83.2055 55.3478 83.2458 55.3877 83.2086 55.0464C83.1684 54.705 82.8277 54.2283 82.8773 53.8469C82.9206 53.4625 83.187 52.8659 83.1033 52.6106C83.0228 52.3523 83.2396 52.1862 83.156 51.7556C83.0755 51.3281 83.1622 51.0298 83.1219 50.8576C83.0817 50.6884 83.2086 50.8176 83.0848 50.3009C82.9609 49.7904 82.4902 49.6551 82.9237 49.529C83.3542 49.406 82.837 49.529 83.3542 49.406C83.8713 49.286 84.1717 49.4152 83.6979 49.2399C83.2272 49.0646 83.0135 48.9724 83.0135 48.9724C83.0135 48.9724 82.9299 48.8032 83.4037 48.8094C83.8775 48.8155 83.7041 48.6833 84.0478 48.7724C84.3916 48.8647 84.0014 49.1138 84.3916 48.8647C84.7787 48.6095 85.1255 48.5295 85.175 48.185C85.2215 47.8437 85.5219 47.5054 85.6148 47.3793C85.7015 47.2532 85.8347 46.9979 85.8347 46.9979C85.8347 46.9979 85.878 46.6934 85.9245 46.5674C85.9647 46.4413 85.9709 46.0168 86.101 45.9707C86.231 45.9277 86.3146 46.0169 86.6677 45.5463C87.0176 45.0819 88.2749 44.0701 88.6248 43.7318C88.9747 43.3904 89.1017 43.5626 89.3216 43.1782C89.5414 42.7999 89.5817 42.7999 89.8418 42.4186C90.105 42.0341 90.2351 42.0341 90.3249 41.865C90.4178 41.6989 90.4581 41.3975 90.5912 41.1884C90.7244 40.9731 90.9412 40.6379 90.9009 40.4226C90.8606 40.2073 90.9504 39.7399 90.9102 39.6138C90.8699 39.4815 90.8699 39.3954 90.8297 39.0971C90.7925 38.7988 90.6222 38.4113 90.7987 38.196C90.9597 38.0238 91.0464 37.7716 90.9659 37.4241Z" fill="#00B9FF"/>
  <path d="M39.8905 1.15803C40.1444 1.16111 40.2776 0.911996 39.8967 0.56447C39.7326 0.416849 39.6335 1.15496 39.8905 1.15803Z" fill="#015EB9"/>
  <path d="M39.9524 4.7993C40.2837 4.80238 40.1816 4.7747 40.6182 4.75625C41.0517 4.73472 41.1508 4.9623 41.2128 4.33184C41.2685 3.69522 41.1446 3.18777 40.6863 3.4338C40.3519 3.61218 40.2187 4.06735 40.0608 4.31953C39.9029 4.57172 39.6211 4.79623 39.9524 4.7993Z" fill="#015EB9"/>
</svg>