<svg xmlns="http://www.w3.org/2000/svg" width="90" height="79" viewBox="0 0 90 79" fill="none">
  <path d="M2.51634 14.8406L0.0251465 17.3318L2.51634 19.823L5.00753 17.3318L2.51634 14.8406Z" fill="#CCD5F2"/>
  <path d="M2.5427 29.6468L0.0515137 32.1379L2.5427 34.6291L5.03389 32.1379L2.5427 29.6468Z" fill="#CCD5F2"/>
  <path d="M2.49778 44.3845L0.0065918 46.8757L2.49779 49.3669L4.98898 46.8757L2.49778 44.3845Z" fill="#CCD5F2"/>
  <path d="M2.52561 59.1929L0.0344238 61.6841L2.52561 64.1753L5.0168 61.6841L2.52561 59.1929Z" fill="#CCD5F2"/>
  <path d="M2.55198 74.0072L0.060791 76.4984L2.55198 78.9896L5.04317 76.4984L2.55198 74.0072Z" fill="#CCD5F2"/>
  <path d="M2.49119 0.0420139L0 2.5332L2.49119 5.0244L4.98238 2.53321L2.49119 0.0420139Z" fill="#CCD5F2"/>
  <path d="M23.542 14.8186L21.0508 17.3098L23.542 19.801L26.0332 17.3098L23.542 14.8186Z" fill="#CCD5F2"/>
  <path d="M23.5698 29.6245L21.0786 32.1157L23.5698 34.6069L26.061 32.1157L23.5698 29.6245Z" fill="#CCD5F2"/>
  <path d="M23.5249 44.3627L21.0337 46.8539L23.5249 49.3451L26.0161 46.8539L23.5249 44.3627Z" fill="#CCD5F2"/>
  <path d="M23.5527 59.1719L21.0615 61.6631L23.5527 64.1543L26.0439 61.6631L23.5527 59.1719Z" fill="#CCD5F2"/>
  <path d="M23.5803 73.9863L21.0891 76.4775L23.5803 78.9687L26.0715 76.4775L23.5803 73.9863Z" fill="#CCD5F2"/>
  <path d="M23.5183 0.0211287L21.0271 2.51233L23.5183 5.00352L26.0095 2.51232L23.5183 0.0211287Z" fill="#CCD5F2"/>
  <path d="M44.5674 14.7975L42.0762 17.2887L44.5674 19.7799L47.0586 17.2887L44.5674 14.7975Z" fill="#CCD5F2"/>
  <path d="M44.595 29.6034L42.1038 32.0946L44.5949 34.5858L47.0861 32.0946L44.595 29.6034Z" fill="#CCD5F2"/>
  <path d="M44.55 44.3419L42.0588 46.8331L44.55 49.3243L47.0412 46.8331L44.55 44.3419Z" fill="#CCD5F2"/>
  <path d="M44.5779 59.1506L42.0867 61.6418L44.5779 64.133L47.0691 61.6418L44.5779 59.1506Z" fill="#CCD5F2"/>
  <path d="M44.6057 73.9658L42.1145 76.457L44.6057 78.9482L47.0969 76.457L44.6057 73.9658Z" fill="#CCD5F2"/>
  <path d="M44.5434 1.05684e-05L42.0522 2.49121L44.5434 4.98241L47.0346 2.49121L44.5434 1.05684e-05Z" fill="#CCD5F2"/>
  <path d="M65.5202 14.8487L63.0291 17.3398L65.5202 19.831L68.0114 17.3398L65.5202 14.8487Z" fill="#CCD5F2"/>
  <path d="M65.5478 29.6547L63.0566 32.1459L65.5478 34.6371L68.039 32.1459L65.5478 29.6547Z" fill="#CCD5F2"/>
  <path d="M65.5029 44.393L63.0117 46.8842L65.5029 49.3754L67.9941 46.8842L65.5029 44.393Z" fill="#CCD5F2"/>
  <path d="M65.5307 59.2027L63.0396 61.6938L65.5307 64.185L68.0219 61.6938L65.5307 59.2027Z" fill="#CCD5F2"/>
  <path d="M65.5598 74.0177L63.0686 76.5089L65.5598 79.0001L68.051 76.5089L65.5598 74.0177Z" fill="#CCD5F2"/>
  <path d="M65.4963 0.0493381L63.0051 2.54053L65.4963 5.03172L67.9875 2.54053L65.4963 0.0493381Z" fill="#CCD5F2"/>
  <path d="M86.5461 14.8272L84.0549 17.3184L86.5461 19.8096L89.0373 17.3184L86.5461 14.8272Z" fill="#CCD5F2"/>
  <path d="M86.5737 29.6332L84.0825 32.1244L86.5737 34.6156L89.0649 32.1244L86.5737 29.6332Z" fill="#CCD5F2"/>
  <path d="M86.5288 44.3723L84.0376 46.8635L86.5288 49.3547L89.02 46.8635L86.5288 44.3723Z" fill="#CCD5F2"/>
  <path d="M86.5566 59.1818L84.0654 61.673L86.5566 64.1642L89.0478 61.673L86.5566 59.1818Z" fill="#CCD5F2"/>
  <path d="M86.5857 73.9976L84.0945 76.4888L86.5857 78.98L89.0769 76.4888L86.5857 73.9976Z" fill="#CCD5F2"/>
  <path d="M86.5222 0.0284641L84.031 2.51965L86.5222 5.01085L89.0134 2.51966L86.5222 0.0284641Z" fill="#CCD5F2"/>
</svg>