<svg xmlns="http://www.w3.org/2000/svg" width="142" height="141" viewBox="0 0 142 141" fill="none">
  <path d="M95.318 40.4776L54.3411 2.15137L68.1885 60.1867L79.4799 49.9758L89.8899 52.7732L64.8833 15.7348L89.3425 45.0846L93.182 44.859L99.6416 44.4802L95.318 40.4776Z" fill="#9FC4D2"/>
  <path fill-rule="evenodd" clip-rule="evenodd" d="M98.6279 65.037L97.2109 65.8816C96.7441 65.0915 96.2681 64.3096 95.7847 63.5325L97.1872 62.6659C97.674 63.445 98.1583 64.2362 98.6279 65.037Z" fill="#9FC4D2"/>
  <path fill-rule="evenodd" clip-rule="evenodd" d="M94.4941 58.4668L96.0094 60.7951L94.618 61.6817L93.1186 59.3806L94.4941 58.4668Z" fill="#9FC4D2"/>
  <path fill-rule="evenodd" clip-rule="evenodd" d="M91.6667 54.3753L93.2691 56.6546L91.9067 57.5851L90.3303 55.339L91.6667 54.3753Z" fill="#9FC4D2"/>
  <path fill-rule="evenodd" clip-rule="evenodd" d="M102.92 76.484L104.411 75.7772L105.574 78.3084L104.069 78.9758L102.92 76.484Z" fill="#9FC4D2"/>
  <path fill-rule="evenodd" clip-rule="evenodd" d="M102.162 71.3195C102.587 72.1438 103.031 72.9571 103.435 73.7926L101.958 74.53C101.562 73.7038 101.119 72.9046 100.703 72.0895L102.162 71.3195Z" fill="#9FC4D2"/>
  <path fill-rule="evenodd" clip-rule="evenodd" d="M101.121 69.3921L99.676 70.1841C99.2418 69.3766 98.7858 68.5837 98.3297 67.7907L99.7611 66.968C100.222 67.7683 100.682 68.5773 101.121 69.3921Z" fill="#9FC4D2"/>
  <path fill-rule="evenodd" clip-rule="evenodd" d="M109.696 89.8607C109.905 90.7771 110.147 91.6815 110.321 92.6098L108.702 92.9262C108.535 92.0334 108.296 91.1538 108.097 90.2696L109.696 89.8607Z" fill="#9FC4D2"/>
  <path fill-rule="evenodd" clip-rule="evenodd" d="M109.093 87.7166L107.51 88.1843C107.271 87.3047 106.967 86.4455 106.673 85.5836L108.233 85.0477C108.536 85.9331 108.848 86.8102 109.093 87.7166Z" fill="#9FC4D2"/>
  <path fill-rule="evenodd" clip-rule="evenodd" d="M104.935 81.0096L106.46 80.3769C106.837 81.2282 107.15 82.1053 107.489 82.9753L105.944 83.5559C105.612 82.7039 105.302 81.8462 104.935 81.0096Z" fill="#9FC4D2"/>
  <path fill-rule="evenodd" clip-rule="evenodd" d="M108.836 104.681L110.44 105.071C110.192 106.008 109.879 106.94 109.542 107.853L108.017 107.215C108.326 106.385 108.612 105.537 108.836 104.681Z" fill="#9FC4D2"/>
  <path fill-rule="evenodd" clip-rule="evenodd" d="M109.399 99.9097L111.051 99.934C111.048 100.887 110.927 101.848 110.868 102.804L109.228 102.592C109.279 101.699 109.399 100.81 109.399 99.9097Z" fill="#9FC4D2"/>
  <path fill-rule="evenodd" clip-rule="evenodd" d="M109.074 95.086L110.71 94.8566L111.005 97.6819L109.357 97.7825L109.074 95.086Z" fill="#9FC4D2"/>
  <path fill-rule="evenodd" clip-rule="evenodd" d="M100.702 116.8C99.819 117.175 98.9226 117.512 98.0304 117.864L97.4925 116.304C98.3238 115.971 99.1695 115.66 99.9931 115.309L100.702 116.8Z" fill="#9FC4D2"/>
  <path fill-rule="evenodd" clip-rule="evenodd" d="M104.01 112.726L105.088 113.978L103.923 114.864C103.53 115.152 103.158 115.475 102.718 115.687L101.849 114.284C102.258 114.095 102.59 113.795 102.947 113.53L104.01 112.726Z" fill="#9FC4D2"/>
  <path fill-rule="evenodd" clip-rule="evenodd" d="M106.305 110.214L107.064 109.129L108.481 109.975L107.639 111.189C107.356 111.591 107.089 112.006 106.726 112.343L105.486 111.255C105.817 110.949 106.052 110.574 106.305 110.214Z" fill="#9FC4D2"/>
  <path fill-rule="evenodd" clip-rule="evenodd" d="M85.7819 119.724C84.8443 119.725 83.9027 119.763 82.9698 119.685L83.0359 118.036C83.9459 118.115 84.8546 118.071 85.7621 118.076L85.7819 119.724Z" fill="#9FC4D2"/>
  <path fill-rule="evenodd" clip-rule="evenodd" d="M90.8324 119.448L88.0165 119.674L87.9261 118.03L90.6399 117.808L90.8324 119.448Z" fill="#9FC4D2"/>
  <path fill-rule="evenodd" clip-rule="evenodd" d="M95.3999 116.908L95.8182 118.502L94.4423 118.868L93.0394 119.101L92.7511 117.478L94.0937 117.255L95.3999 116.908Z" fill="#9FC4D2"/>
  <path fill-rule="evenodd" clip-rule="evenodd" d="M70.8091 118.136L68.0782 117.565L68.4454 115.959L71.1332 116.519L70.8091 118.136Z" fill="#9FC4D2"/>
  <path fill-rule="evenodd" clip-rule="evenodd" d="M75.7381 119.002L72.9823 118.552L73.268 116.931L75.9753 117.371L75.7381 119.002Z" fill="#9FC4D2"/>
  <path fill-rule="evenodd" clip-rule="evenodd" d="M80.7125 119.555C79.7756 119.515 78.8577 119.364 77.9273 119.273L78.1139 117.636C79.0234 117.723 79.9272 117.875 80.8345 117.911L80.7125 119.555Z" fill="#9FC4D2"/>
  <path fill-rule="evenodd" clip-rule="evenodd" d="M56.8372 112.713L56.3282 114.282L53.7008 113.391L54.2356 111.832L56.8372 112.713Z" fill="#9FC4D2"/>
  <path fill-rule="evenodd" clip-rule="evenodd" d="M61.0949 115.741C60.1963 115.502 59.3164 115.215 58.434 114.939L58.9207 113.362C59.7963 113.633 60.6694 113.917 61.5505 114.155L61.0949 115.741Z" fill="#9FC4D2"/>
  <path fill-rule="evenodd" clip-rule="evenodd" d="M65.9018 117.03C65.0021 116.808 64.0966 116.596 63.2084 116.331L63.6398 114.74C64.5178 114.999 65.4112 115.208 66.2987 115.428L65.9018 117.03Z" fill="#9FC4D2"/>
  <path fill-rule="evenodd" clip-rule="evenodd" d="M42.9476 107.554L42.3182 109.081L39.7592 108.016L40.4022 106.498L42.9476 107.554Z" fill="#9FC4D2"/>
  <path fill-rule="evenodd" clip-rule="evenodd" d="M47.5302 109.387L46.9352 110.924L44.3536 109.914L44.9675 108.384L47.5302 109.387Z" fill="#9FC4D2"/>
  <path fill-rule="evenodd" clip-rule="evenodd" d="M52.1372 111.106L51.5835 112.659L48.9813 111.7L49.5573 110.157L52.1372 111.106Z" fill="#9FC4D2"/>
  <path fill-rule="evenodd" clip-rule="evenodd" d="M29.3989 101.508L28.6875 102.996L26.1974 101.781L26.9223 100.301L29.3989 101.508Z" fill="#9FC4D2"/>
  <path fill-rule="evenodd" clip-rule="evenodd" d="M33.8745 103.604L33.1854 105.1L30.6732 103.932L31.3758 102.443L33.8745 103.604Z" fill="#9FC4D2"/>
  <path fill-rule="evenodd" clip-rule="evenodd" d="M38.3694 105.612L37.7075 107.124L35.1712 106.005L35.8466 104.5L38.3694 105.612Z" fill="#9FC4D2"/>
  <path fill-rule="evenodd" clip-rule="evenodd" d="M16.1749 94.776L15.3938 96.2282L12.961 94.9067L13.7523 93.4605L16.1749 94.776Z" fill="#9FC4D2"/>
  <path fill-rule="evenodd" clip-rule="evenodd" d="M20.5429 97.0811L19.7855 98.5469L17.3331 97.2594L18.104 95.8014L20.5429 97.0811Z" fill="#9FC4D2"/>
  <path fill-rule="evenodd" clip-rule="evenodd" d="M24.9328 99.3175L24.1978 100.792L21.7218 99.5449L22.4704 98.0785L24.9328 99.3175Z" fill="#9FC4D2"/>
  <path fill-rule="evenodd" clip-rule="evenodd" d="M0.911078 86.0273L3.2637 87.4561L2.41466 88.869L0.0450769 87.4304L0.911078 86.0273Z" fill="#9FC4D2"/>
  <path fill-rule="evenodd" clip-rule="evenodd" d="M7.52349 89.9567L6.7016 91.3853L4.30655 89.9907L5.14203 88.57L7.52349 89.9567Z" fill="#9FC4D2"/>
  <path fill-rule="evenodd" clip-rule="evenodd" d="M11.8065 92.3847L11.005 93.825L8.59181 92.4697L9.40888 91.0338L11.8065 92.3847Z" fill="#9FC4D2"/>
</svg>