<svg xmlns="http://www.w3.org/2000/svg" width="197" height="197" viewBox="0 0 197 197" fill="none">
  <path d="M147.133 147.136C174.22 120.05 174.22 76.1338 147.133 49.0473C120.047 21.9608 76.131 21.9608 49.0445 49.0473C21.958 76.1338 21.9579 120.05 49.0444 147.136C76.1309 174.223 120.047 174.223 147.133 147.136Z" stroke="url(#paint0_linear_340_1881)" stroke-width="20" stroke-miterlimit="10"/>
  <path d="M83 58.5C88.72 58.5 88.72 65.82 94.44 65.82C100.16 65.82 100.16 58.5 105.88 58.5C111.6 58.5 111.6 65.82 117.32 65.82C123.04 65.82 123.04 58.5 128.76 58.5C134.48 58.5 134.48 65.82 140.2 65.82C145.92 65.82 145.92 58.5 151.64 58.5C157.36 58.5 157.36 65.82 163.09 65.82C168.81 65.82 168.81 58.5 174.54 58.5" stroke="#B9E0ED" stroke-miterlimit="10"/>
  <defs>
    <linearGradient id="paint0_linear_340_1881" x1="158.5" y1="57" x2="84" y2="134.5" gradientUnits="userSpaceOnUse">
      <stop stop-color="#DAF1F9"/>
      <stop offset="1" stop-color="#F6FCFE"/>
    </linearGradient>
  </defs>
</svg>