<svg xmlns="http://www.w3.org/2000/svg" width="113" height="163" viewBox="0 0 113 163" fill="none">
  <g opacity="0.1">
    <path opacity="0.8" d="M106.56 1V102.82L23.49 51.91L106.56 1Z" fill="#DAF3FD"/>
    <path opacity="0.8" d="M84.0599 1V102.82L1 51.91L84.0599 1Z" stroke="#C2E8F4" stroke-miterlimit="10"/>
    <g opacity="0.8">
      <path d="M31.7501 86.5201C31.7501 85.8401 31.2 85.29 30.52 85.29C29.84 85.29 29.29 85.8401 29.29 86.5201C29.29 87.2001 29.84 87.7501 30.52 87.7501C31.2 87.7501 31.7501 87.2001 31.7501 86.5201Z" fill="#AAD7E6"/>
      <path d="M51.9901 86.5201C51.9901 85.8401 51.4401 85.29 50.7601 85.29C50.0801 85.29 49.53 85.8401 49.53 86.5201C49.53 87.2001 50.0801 87.7501 50.7601 87.7501C51.4401 87.7601 51.9901 87.2001 51.9901 86.5201Z" fill="#AAD7E6"/>
      <path d="M72.2401 86.5201C72.2401 85.8401 71.6901 85.29 71.0101 85.29C70.3301 85.29 69.78 85.8401 69.78 86.5201C69.78 87.2001 70.3301 87.7501 71.0101 87.7501C71.6901 87.7601 72.2401 87.2001 72.2401 86.5201Z" fill="#AAD7E6"/>
      <path d="M92.4901 86.5201C92.4901 85.8401 91.9401 85.29 91.2601 85.29C90.5801 85.29 90.03 85.8401 90.03 86.5201C90.03 87.2001 90.5801 87.7501 91.2601 87.7501C91.9301 87.7601 92.4901 87.2001 92.4901 86.5201Z" fill="#EBEBEB"/>
      <path d="M112.73 86.5201C112.73 85.8401 112.18 85.29 111.5 85.29C110.82 85.29 110.27 85.8401 110.27 86.5201C110.27 87.2001 110.82 87.7501 111.5 87.7501C112.18 87.7601 112.73 87.2001 112.73 86.5201Z" fill="#AAD7E6"/>
      <path d="M31.7501 105.2C31.7501 104.52 31.2 103.97 30.52 103.97C29.84 103.97 29.29 104.52 29.29 105.2C29.29 105.88 29.84 106.43 30.52 106.43C31.2 106.43 31.7501 105.88 31.7501 105.2Z" fill="#AAD7E6"/>
      <path d="M51.9901 105.2C51.9901 104.52 51.4401 103.97 50.7601 103.97C50.0801 103.97 49.53 104.52 49.53 105.2C49.53 105.88 50.0801 106.43 50.7601 106.43C51.4401 106.43 51.9901 105.88 51.9901 105.2Z" fill="#AAD7E6"/>
      <path d="M72.2401 105.2C72.2401 104.52 71.6901 103.97 71.0101 103.97C70.3301 103.97 69.78 104.52 69.78 105.2C69.78 105.88 70.3301 106.43 71.0101 106.43C71.6901 106.43 72.2401 105.88 72.2401 105.2Z" fill="#AAD7E6"/>
      <path d="M92.4901 105.2C92.4901 104.52 91.9401 103.97 91.2601 103.97C90.5801 103.97 90.03 104.52 90.03 105.2C90.03 105.88 90.5801 106.43 91.2601 106.43C91.9301 106.43 92.4901 105.88 92.4901 105.2Z" fill="#AAD7E6"/>
      <path d="M112.73 105.2C112.73 104.52 112.18 103.97 111.5 103.97C110.82 103.97 110.27 104.52 110.27 105.2C110.27 105.88 110.82 106.43 111.5 106.43C112.18 106.43 112.73 105.88 112.73 105.2Z" fill="#AAD7E6"/>
      <path d="M31.7501 123.88C31.7501 123.2 31.2 122.65 30.52 122.65C29.84 122.65 29.29 123.2 29.29 123.88C29.29 124.56 29.84 125.11 30.52 125.11C31.2 125.11 31.7501 124.56 31.7501 123.88Z" fill="#AAD7E6"/>
      <path d="M51.9901 123.88C51.9901 123.2 51.4401 122.65 50.7601 122.65C50.0801 122.65 49.53 123.2 49.53 123.88C49.53 124.56 50.0801 125.11 50.7601 125.11C51.4401 125.11 51.9901 124.56 51.9901 123.88Z" fill="#AAD7E6"/>
      <path d="M72.2401 123.88C72.2401 123.2 71.6901 122.65 71.0101 122.65C70.3301 122.65 69.78 123.2 69.78 123.88C69.78 124.56 70.3301 125.11 71.0101 125.11C71.6901 125.11 72.2401 124.56 72.2401 123.88Z" fill="#AAD7E6"/>
      <path d="M92.4901 123.88C92.4901 123.2 91.9401 122.65 91.2601 122.65C90.5801 122.65 90.03 123.2 90.03 123.88C90.03 124.56 90.5801 125.11 91.2601 125.11C91.9301 125.11 92.4901 124.56 92.4901 123.88Z" fill="#AAD7E6"/>
      <path d="M112.73 123.88C112.73 123.2 112.18 122.65 111.5 122.65C110.82 122.65 110.27 123.2 110.27 123.88C110.27 124.56 110.82 125.11 111.5 125.11C112.18 125.11 112.73 124.56 112.73 123.88Z" fill="#AAD7E6"/>
      <path d="M31.7501 142.55C31.7501 141.87 31.2 141.32 30.52 141.32C29.84 141.32 29.29 141.87 29.29 142.55C29.29 143.23 29.84 143.78 30.52 143.78C31.2 143.78 31.7501 143.23 31.7501 142.55Z" fill="#EBEBEB"/>
      <path d="M51.9901 142.55C51.9901 141.87 51.4401 141.32 50.7601 141.32C50.0801 141.32 49.53 141.87 49.53 142.55C49.53 143.23 50.0801 143.78 50.7601 143.78C51.4401 143.78 51.9901 143.23 51.9901 142.55Z" fill="#EBEBEB"/>
      <path d="M72.2401 142.55C72.2401 141.87 71.6901 141.32 71.0101 141.32C70.3301 141.32 69.78 141.87 69.78 142.55C69.78 143.23 70.3301 143.78 71.0101 143.78C71.6901 143.78 72.2401 143.23 72.2401 142.55Z" fill="#AAD7E6"/>
      <path d="M92.4901 142.55C92.4901 141.87 91.9401 141.32 91.2601 141.32C90.5801 141.32 90.03 141.87 90.03 142.55C90.03 143.23 90.5801 143.78 91.2601 143.78C91.9301 143.78 92.4901 143.23 92.4901 142.55Z" fill="#AAD7E6"/>
      <path d="M112.73 142.55C112.73 141.87 112.18 141.32 111.5 141.32C110.82 141.32 110.27 141.87 110.27 142.55C110.27 143.23 110.82 143.78 111.5 143.78C112.18 143.78 112.73 143.23 112.73 142.55Z" fill="#AAD7E6"/>
      <path d="M31.7501 161.23C31.7501 160.55 31.2 160 30.52 160C29.84 160 29.29 160.55 29.29 161.23C29.29 161.91 29.84 162.46 30.52 162.46C31.2 162.46 31.7501 161.91 31.7501 161.23Z" fill="#EBEBEB"/>
      <path d="M51.9901 161.23C51.9901 160.55 51.4401 160 50.7601 160C50.0801 160 49.53 160.55 49.53 161.23C49.53 161.91 50.0801 162.46 50.7601 162.46C51.4401 162.46 51.9901 161.91 51.9901 161.23Z" fill="#EBEBEB"/>
      <path d="M72.2401 161.23C72.2401 160.55 71.6901 160 71.0101 160C70.3301 160 69.78 160.55 69.78 161.23C69.78 161.91 70.3301 162.46 71.0101 162.46C71.6901 162.46 72.2401 161.91 72.2401 161.23Z" fill="#EBEBEB"/>
      <path d="M92.4901 161.23C92.4901 160.55 91.9401 160 91.2601 160C90.5801 160 90.03 160.55 90.03 161.23C90.03 161.91 90.5801 162.46 91.2601 162.46C91.9301 162.46 92.4901 161.91 92.4901 161.23Z" fill="#AAD7E6"/>
      <path d="M112.73 161.23C112.73 160.55 112.18 160 111.5 160C110.82 160 110.27 160.55 110.27 161.23C110.27 161.91 110.82 162.46 111.5 162.46C112.18 162.46 112.73 161.91 112.73 161.23Z" fill="#AAD7E6"/>
    </g>
  </g>
</svg>