<svg xmlns="http://www.w3.org/2000/svg" width="124" height="183" viewBox="0 0 124 183" fill="none">
  <g opacity="0.15">
    <path opacity="0.5" d="M21.4851 0C-6.69747 28.1826 -6.69747 73.8604 21.4851 102.043C49.6677 130.226 95.3455 130.226 123.528 102.043L21.4851 0Z" fill="#E6F9FF"/>
    <path d="M42.6985 107.043C42.6985 106.364 42.1467 105.812 41.4676 105.812C40.7885 105.812 40.2368 106.364 40.2368 107.043C40.2368 107.722 40.7885 108.274 41.4676 108.274C42.1467 108.274 42.6985 107.722 42.6985 107.043Z" fill="#ADDAE8"/>
    <path d="M62.9526 107.043C62.9526 106.364 62.4008 105.812 61.7217 105.812C61.0426 105.812 60.4908 106.364 60.4908 107.043C60.4908 107.722 61.0426 108.274 61.7217 108.274C62.4008 108.274 62.9526 107.722 62.9526 107.043Z" fill="#ADDAE8"/>
    <path d="M83.2067 107.043C83.2067 106.364 82.6549 105.812 81.9758 105.812C81.2967 105.812 80.7449 106.364 80.7449 107.043C80.7449 107.722 81.2967 108.274 81.9758 108.274C82.6549 108.274 83.2067 107.722 83.2067 107.043Z" fill="#ADDAE8"/>
    <path d="M103.452 107.043C103.452 106.364 102.901 105.812 102.221 105.812C101.542 105.812 100.991 106.364 100.991 107.043C100.991 107.722 101.542 108.274 102.221 108.274C102.901 108.274 103.452 107.722 103.452 107.043Z" fill="#ADDAE8"/>
    <path d="M123.706 107.043C123.706 106.364 123.155 105.812 122.476 105.812C121.796 105.812 121.245 106.364 121.245 107.043C121.245 107.722 121.796 108.274 122.476 108.274C123.155 108.274 123.706 107.722 123.706 107.043Z" fill="#ADDAE8"/>
    <path d="M42.6985 125.726C42.6985 125.047 42.1467 124.496 41.4676 124.496C40.7885 124.496 40.2368 125.047 40.2368 125.726C40.2368 126.406 40.7885 126.957 41.4676 126.957C42.1467 126.957 42.6985 126.406 42.6985 125.726Z" fill="#ADDAE8"/>
    <path d="M62.9526 125.726C62.9526 125.047 62.4008 124.496 61.7217 124.496C61.0426 124.496 60.4908 125.047 60.4908 125.726C60.4908 126.406 61.0426 126.957 61.7217 126.957C62.4008 126.957 62.9526 126.406 62.9526 125.726Z" fill="#ADDAE8"/>
    <path d="M83.2067 125.726C83.2067 125.047 82.6549 124.496 81.9758 124.496C81.2967 124.496 80.7449 125.047 80.7449 125.726C80.7449 126.406 81.2967 126.957 81.9758 126.957C82.6549 126.957 83.2067 126.406 83.2067 125.726Z" fill="#ADDAE8"/>
    <path d="M103.452 125.726C103.452 125.047 102.901 124.496 102.221 124.496C101.542 124.496 100.991 125.047 100.991 125.726C100.991 126.406 101.542 126.957 102.221 126.957C102.901 126.957 103.452 126.406 103.452 125.726Z" fill="#ADDAE8"/>
    <path d="M123.706 125.726C123.706 125.047 123.155 124.496 122.476 124.496C121.796 124.496 121.245 125.047 121.245 125.726C121.245 126.406 121.796 126.957 122.476 126.957C123.155 126.957 123.706 126.406 123.706 125.726Z" fill="#ADDAE8"/>
    <path d="M42.6985 144.41C42.6985 143.731 42.1467 143.179 41.4676 143.179C40.7885 143.179 40.2368 143.731 40.2368 144.41C40.2368 145.089 40.7885 145.641 41.4676 145.641C42.1467 145.641 42.6985 145.089 42.6985 144.41Z" fill="#ADDAE8"/>
    <path d="M62.9526 144.41C62.9526 143.731 62.4008 143.179 61.7217 143.179C61.0426 143.179 60.4908 143.731 60.4908 144.41C60.4908 145.089 61.0426 145.641 61.7217 145.641C62.4008 145.641 62.9526 145.089 62.9526 144.41Z" fill="#ADDAE8"/>
    <path d="M83.2067 144.41C83.2067 143.731 82.6549 143.179 81.9758 143.179C81.2967 143.179 80.7449 143.731 80.7449 144.41C80.7449 145.089 81.2967 145.641 81.9758 145.641C82.6549 145.641 83.2067 145.089 83.2067 144.41Z" fill="#ADDAE8"/>
    <path d="M103.452 144.41C103.452 143.731 102.901 143.179 102.221 143.179C101.542 143.179 100.991 143.731 100.991 144.41C100.991 145.089 101.542 145.641 102.221 145.641C102.901 145.641 103.452 145.089 103.452 144.41Z" fill="#ADDAE8"/>
    <path d="M123.706 144.41C123.706 143.731 123.155 143.179 122.476 143.179C121.796 143.179 121.245 143.731 121.245 144.41C121.245 145.089 121.796 145.641 122.476 145.641C123.155 145.641 123.706 145.089 123.706 144.41Z" fill="#ADDAE8"/>
    <path d="M42.6985 163.085C42.6985 162.406 42.1467 161.854 41.4676 161.854C40.7885 161.854 40.2368 162.406 40.2368 163.085C40.2368 163.764 40.7885 164.316 41.4676 164.316C42.1467 164.316 42.6985 163.764 42.6985 163.085Z" fill="#ADDAE8"/>
    <path d="M62.9526 163.085C62.9526 162.406 62.4008 161.854 61.7217 161.854C61.0426 161.854 60.4908 162.406 60.4908 163.085C60.4908 163.764 61.0426 164.316 61.7217 164.316C62.4008 164.316 62.9526 163.764 62.9526 163.085Z" fill="#ADDAE8"/>
    <path d="M83.2067 163.085C83.2067 162.406 82.6549 161.854 81.9758 161.854C81.2967 161.854 80.7449 162.406 80.7449 163.085C80.7449 163.764 81.2967 164.316 81.9758 164.316C82.6549 164.316 83.2067 163.764 83.2067 163.085Z" fill="#ADDAE8"/>
    <path d="M103.452 163.085C103.452 162.406 102.901 161.854 102.221 161.854C101.542 161.854 100.991 162.406 100.991 163.085C100.991 163.764 101.542 164.316 102.221 164.316C102.901 164.316 103.452 163.764 103.452 163.085Z" fill="#ADDAE8"/>
    <path d="M123.706 163.085C123.706 162.406 123.155 161.854 122.476 161.854C121.796 161.854 121.245 162.406 121.245 163.085C121.245 163.764 121.796 164.316 122.476 164.316C123.155 164.316 123.706 163.764 123.706 163.085Z" fill="#ADDAE8"/>
    <path d="M42.6985 181.769C42.6985 181.09 42.1467 180.538 41.4676 180.538C40.7885 180.538 40.2368 181.09 40.2368 181.769C40.2368 182.448 40.7885 183 41.4676 183C42.1467 183 42.6985 182.448 42.6985 181.769Z" fill="#ADDAE8"/>
    <path d="M62.9526 181.769C62.9526 181.09 62.4008 180.538 61.7217 180.538C61.0426 180.538 60.4908 181.09 60.4908 181.769C60.4908 182.448 61.0426 183 61.7217 183C62.4008 183 62.9526 182.448 62.9526 181.769Z" fill="#ADDAE8"/>
    <path d="M83.2067 181.769C83.2067 181.09 82.6549 180.538 81.9758 180.538C81.2967 180.538 80.7449 181.09 80.7449 181.769C80.7449 182.448 81.2967 183 81.9758 183C82.6549 183 83.2067 182.448 83.2067 181.769Z" fill="#ADDAE8"/>
    <path d="M103.452 181.769C103.452 181.09 102.901 180.538 102.221 180.538C101.542 180.538 100.991 181.09 100.991 181.769C100.991 182.448 101.542 183 102.221 183C102.901 183 103.452 182.448 103.452 181.769Z" fill="#ADDAE8"/>
    <path d="M123.706 181.769C123.706 181.09 123.155 180.538 122.476 180.538C121.796 180.538 121.245 181.09 121.245 181.769C121.245 182.448 121.796 183 122.476 183C123.155 183 123.706 182.448 123.706 181.769Z" fill="#ADDAE8"/>
  </g>
</svg>